solid ASCII
  facet normal 0.000000e+00 0.000000e+00 1.000000e+00
    outer loop
      vertex   7.133974e+00 -6.500000e+00 4.000000e+00
      vertex   -7.133975e+00 -6.500000e+00 4.000000e+00
      vertex   7.000000e+00 -7.000000e+00 4.000000e+00
    endloop
  endfacet
  facet normal 0.000000e+00 0.000000e+00 1.000000e+00
    outer loop
      vertex   7.000000e+00 -7.000000e+00 4.000000e+00
      vertex   -7.133975e+00 -6.500000e+00 4.000000e+00
      vertex   -7.000000e+00 -7.000000e+00 4.000000e+00
    endloop
  endfacet
  facet normal 0.000000e+00 0.000000e+00 1.000000e+00
    outer loop
      vertex   7.000000e+00 -7.000000e+00 4.000000e+00
      vertex   -7.000000e+00 -7.000000e+00 4.000000e+00
      vertex   7.133974e+00 -7.500000e+00 4.000000e+00
    endloop
  endfacet
  facet normal 0.000000e+00 0.000000e+00 1.000000e+00
    outer loop
      vertex   7.133974e+00 -7.500000e+00 4.000000e+00
      vertex   -7.000000e+00 -7.000000e+00 4.000000e+00
      vertex   -7.133975e+00 -7.500000e+00 4.000000e+00
    endloop
  endfacet
  facet normal 0.000000e+00 0.000000e+00 1.000000e+00
    outer loop
      vertex   7.133974e+00 -7.500000e+00 4.000000e+00
      vertex   -7.133975e+00 -7.500000e+00 4.000000e+00
      vertex   1.071566e-15 -1.750000e+01 4.000000e+00
    endloop
  endfacet
  facet normal 0.000000e+00 0.000000e+00 1.000000e+00
    outer loop
      vertex   1.071566e-15 -1.750000e+01 4.000000e+00
      vertex   -7.133975e+00 -7.500000e+00 4.000000e+00
      vertex   -3.894116e+00 -1.706124e+01 4.000000e+00
    endloop
  endfacet
  facet normal 0.000000e+00 0.000000e+00 1.000000e+00
    outer loop
      vertex   -3.894116e+00 -1.706124e+01 4.000000e+00
      vertex   -7.133975e+00 -7.500000e+00 4.000000e+00
      vertex   -7.500000e+00 -7.866025e+00 4.000000e+00
    endloop
  endfacet
  facet normal 0.000000e+00 0.000000e+00 1.000000e+00
    outer loop
      vertex   -3.894116e+00 -1.706124e+01 4.000000e+00
      vertex   -7.500000e+00 -7.866025e+00 4.000000e+00
      vertex   -7.592965e+00 -1.576696e+01 4.000000e+00
    endloop
  endfacet
  facet normal 0.000000e+00 -0.000000e+00 1.000000e+00
    outer loop
      vertex   -7.592965e+00 -1.576696e+01 4.000000e+00
      vertex   -7.500000e+00 -7.866025e+00 4.000000e+00
      vertex   -8.000000e+00 -8.000000e+00 4.000000e+00
    endloop
  endfacet
  facet normal 0.000000e+00 0.000000e+00 1.000000e+00
    outer loop
      vertex   -7.592965e+00 -1.576696e+01 4.000000e+00
      vertex   -8.000000e+00 -8.000000e+00 4.000000e+00
      vertex   -1.091107e+01 -1.368205e+01 4.000000e+00
    endloop
  endfacet
  facet normal 0.000000e+00 0.000000e+00 1.000000e+00
    outer loop
      vertex   -1.091107e+01 -1.368205e+01 4.000000e+00
      vertex   -8.000000e+00 -8.000000e+00 4.000000e+00
      vertex   -8.500000e+00 -7.866025e+00 4.000000e+00
    endloop
  endfacet
  facet normal 0.000000e+00 -0.000000e+00 1.000000e+00
    outer loop
      vertex   -1.091107e+01 -1.368205e+01 4.000000e+00
      vertex   -8.500000e+00 -7.866025e+00 4.000000e+00
      vertex   -1.368205e+01 -1.091107e+01 4.000000e+00
    endloop
  endfacet
  facet normal 0.000000e+00 0.000000e+00 1.000000e+00
    outer loop
      vertex   -1.368205e+01 -1.091107e+01 4.000000e+00
      vertex   -8.500000e+00 -7.866025e+00 4.000000e+00
      vertex   -8.866026e+00 -7.500000e+00 4.000000e+00
    endloop
  endfacet
  facet normal 0.000000e+00 0.000000e+00 1.000000e+00
    outer loop
      vertex   -1.368205e+01 -1.091107e+01 4.000000e+00
      vertex   -8.866026e+00 -7.500000e+00 4.000000e+00
      vertex   -9.000000e+00 -7.000000e+00 4.000000e+00
    endloop
  endfacet
  facet normal 0.000000e+00 -0.000000e+00 1.000000e+00
    outer loop
      vertex   7.500000e+00 -6.133974e+00 4.000000e+00
      vertex   7.500000e+00 6.133975e+00 4.000000e+00
      vertex   7.133974e+00 -6.500000e+00 4.000000e+00
    endloop
  endfacet
  facet normal 0.000000e+00 -0.000000e+00 1.000000e+00
    outer loop
      vertex   7.133974e+00 -6.500000e+00 4.000000e+00
      vertex   7.500000e+00 6.133975e+00 4.000000e+00
      vertex   7.133974e+00 6.500000e+00 4.000000e+00
    endloop
  endfacet
  facet normal 0.000000e+00 0.000000e+00 1.000000e+00
    outer loop
      vertex   7.133974e+00 -6.500000e+00 4.000000e+00
      vertex   7.133974e+00 6.500000e+00 4.000000e+00
      vertex   -7.133975e+00 6.500000e+00 4.000000e+00
    endloop
  endfacet
  facet normal -0.000000e+00 0.000000e+00 1.000000e+00
    outer loop
      vertex   -7.133975e+00 6.500000e+00 4.000000e+00
      vertex   7.133974e+00 6.500000e+00 4.000000e+00
      vertex   -7.000000e+00 7.000000e+00 4.000000e+00
    endloop
  endfacet
  facet normal -0.000000e+00 0.000000e+00 1.000000e+00
    outer loop
      vertex   -7.000000e+00 7.000000e+00 4.000000e+00
      vertex   7.133974e+00 6.500000e+00 4.000000e+00
      vertex   7.000000e+00 7.000000e+00 4.000000e+00
    endloop
  endfacet
  facet normal 0.000000e+00 -0.000000e+00 1.000000e+00
    outer loop
      vertex   -7.000000e+00 7.000000e+00 4.000000e+00
      vertex   7.000000e+00 7.000000e+00 4.000000e+00
      vertex   -7.133975e+00 7.500000e+00 4.000000e+00
    endloop
  endfacet
  facet normal -0.000000e+00 0.000000e+00 1.000000e+00
    outer loop
      vertex   -7.133975e+00 7.500000e+00 4.000000e+00
      vertex   7.000000e+00 7.000000e+00 4.000000e+00
      vertex   7.133974e+00 7.500000e+00 4.000000e+00
    endloop
  endfacet
  facet normal 0.000000e+00 0.000000e+00 1.000000e+00
    outer loop
      vertex   -7.133975e+00 7.500000e+00 4.000000e+00
      vertex   7.133974e+00 7.500000e+00 4.000000e+00
      vertex   1.071566e-15 1.750000e+01 4.000000e+00
    endloop
  endfacet
  facet normal 0.000000e+00 0.000000e+00 1.000000e+00
    outer loop
      vertex   1.071566e-15 1.750000e+01 4.000000e+00
      vertex   7.133974e+00 7.500000e+00 4.000000e+00
      vertex   3.894116e+00 1.706124e+01 4.000000e+00
    endloop
  endfacet
  facet normal 0.000000e+00 0.000000e+00 1.000000e+00
    outer loop
      vertex   3.894116e+00 1.706124e+01 4.000000e+00
      vertex   7.133974e+00 7.500000e+00 4.000000e+00
      vertex   7.500000e+00 7.866026e+00 4.000000e+00
    endloop
  endfacet
  facet normal 0.000000e+00 0.000000e+00 1.000000e+00
    outer loop
      vertex   3.894116e+00 1.706124e+01 4.000000e+00
      vertex   7.500000e+00 7.866026e+00 4.000000e+00
      vertex   7.592965e+00 1.576696e+01 4.000000e+00
    endloop
  endfacet
  facet normal 0.000000e+00 0.000000e+00 1.000000e+00
    outer loop
      vertex   7.592965e+00 1.576696e+01 4.000000e+00
      vertex   7.500000e+00 7.866026e+00 4.000000e+00
      vertex   8.000000e+00 8.000000e+00 4.000000e+00
    endloop
  endfacet
  facet normal 0.000000e+00 0.000000e+00 1.000000e+00
    outer loop
      vertex   7.592965e+00 1.576696e+01 4.000000e+00
      vertex   8.000000e+00 8.000000e+00 4.000000e+00
      vertex   1.091107e+01 1.368205e+01 4.000000e+00
    endloop
  endfacet
  facet normal 0.000000e+00 0.000000e+00 1.000000e+00
    outer loop
      vertex   1.091107e+01 1.368205e+01 4.000000e+00
      vertex   8.000000e+00 8.000000e+00 4.000000e+00
      vertex   8.500000e+00 7.866026e+00 4.000000e+00
    endloop
  endfacet
  facet normal 0.000000e+00 0.000000e+00 1.000000e+00
    outer loop
      vertex   1.091107e+01 1.368205e+01 4.000000e+00
      vertex   8.500000e+00 7.866026e+00 4.000000e+00
      vertex   1.368205e+01 1.091107e+01 4.000000e+00
    endloop
  endfacet
  facet normal 0.000000e+00 0.000000e+00 1.000000e+00
    outer loop
      vertex   1.368205e+01 1.091107e+01 4.000000e+00
      vertex   8.500000e+00 7.866026e+00 4.000000e+00
      vertex   8.866025e+00 7.500000e+00 4.000000e+00
    endloop
  endfacet
  facet normal 0.000000e+00 0.000000e+00 1.000000e+00
    outer loop
      vertex   1.368205e+01 1.091107e+01 4.000000e+00
      vertex   8.866025e+00 7.500000e+00 4.000000e+00
      vertex   9.000000e+00 7.000000e+00 4.000000e+00
    endloop
  endfacet
  facet normal 0.000000e+00 0.000000e+00 1.000000e+00
    outer loop
      vertex   7.500000e+00 6.133975e+00 4.000000e+00
      vertex   7.500000e+00 -6.133974e+00 4.000000e+00
      vertex   8.000000e+00 6.000000e+00 4.000000e+00
    endloop
  endfacet
  facet normal 0.000000e+00 0.000000e+00 1.000000e+00
    outer loop
      vertex   8.000000e+00 6.000000e+00 4.000000e+00
      vertex   7.500000e+00 -6.133974e+00 4.000000e+00
      vertex   8.000000e+00 -6.000000e+00 4.000000e+00
    endloop
  endfacet
  facet normal -0.000000e+00 0.000000e+00 1.000000e+00
    outer loop
      vertex   8.000000e+00 6.000000e+00 4.000000e+00
      vertex   8.000000e+00 -6.000000e+00 4.000000e+00
      vertex   8.500000e+00 6.133975e+00 4.000000e+00
    endloop
  endfacet
  facet normal 0.000000e+00 0.000000e+00 1.000000e+00
    outer loop
      vertex   8.500000e+00 6.133975e+00 4.000000e+00
      vertex   8.000000e+00 -6.000000e+00 4.000000e+00
      vertex   8.500000e+00 -6.133974e+00 4.000000e+00
    endloop
  endfacet
  facet normal 0.000000e+00 0.000000e+00 1.000000e+00
    outer loop
      vertex   8.500000e+00 6.133975e+00 4.000000e+00
      vertex   8.500000e+00 -6.133974e+00 4.000000e+00
      vertex   1.750000e+01 0.000000e+00 4.000000e+00
    endloop
  endfacet
  facet normal 0.000000e+00 0.000000e+00 1.000000e+00
    outer loop
      vertex   1.750000e+01 0.000000e+00 4.000000e+00
      vertex   8.500000e+00 -6.133974e+00 4.000000e+00
      vertex   1.706124e+01 -3.894116e+00 4.000000e+00
    endloop
  endfacet
  facet normal 0.000000e+00 0.000000e+00 1.000000e+00
    outer loop
      vertex   1.706124e+01 -3.894116e+00 4.000000e+00
      vertex   8.500000e+00 -6.133974e+00 4.000000e+00
      vertex   8.866025e+00 -6.500000e+00 4.000000e+00
    endloop
  endfacet
  facet normal 0.000000e+00 0.000000e+00 1.000000e+00
    outer loop
      vertex   1.706124e+01 -3.894116e+00 4.000000e+00
      vertex   8.866025e+00 -6.500000e+00 4.000000e+00
      vertex   1.576696e+01 -7.592965e+00 4.000000e+00
    endloop
  endfacet
  facet normal 0.000000e+00 0.000000e+00 1.000000e+00
    outer loop
      vertex   1.576696e+01 -7.592965e+00 4.000000e+00
      vertex   8.866025e+00 -6.500000e+00 4.000000e+00
      vertex   9.000000e+00 -7.000000e+00 4.000000e+00
    endloop
  endfacet
  facet normal 0.000000e+00 0.000000e+00 1.000000e+00
    outer loop
      vertex   1.576696e+01 -7.592965e+00 4.000000e+00
      vertex   9.000000e+00 -7.000000e+00 4.000000e+00
      vertex   1.368205e+01 -1.091107e+01 4.000000e+00
    endloop
  endfacet
  facet normal 0.000000e+00 0.000000e+00 1.000000e+00
    outer loop
      vertex   1.368205e+01 -1.091107e+01 4.000000e+00
      vertex   9.000000e+00 -7.000000e+00 4.000000e+00
      vertex   8.866025e+00 -7.500000e+00 4.000000e+00
    endloop
  endfacet
  facet normal 0.000000e+00 0.000000e+00 1.000000e+00
    outer loop
      vertex   1.368205e+01 -1.091107e+01 4.000000e+00
      vertex   8.866025e+00 -7.500000e+00 4.000000e+00
      vertex   8.500000e+00 -7.866025e+00 4.000000e+00
    endloop
  endfacet
  facet normal 0.000000e+00 0.000000e+00 1.000000e+00
    outer loop
      vertex   1.368205e+01 -1.091107e+01 4.000000e+00
      vertex   8.500000e+00 -7.866025e+00 4.000000e+00
      vertex   1.091107e+01 -1.368205e+01 4.000000e+00
    endloop
  endfacet
  facet normal 0.000000e+00 0.000000e+00 1.000000e+00
    outer loop
      vertex   1.091107e+01 -1.368205e+01 4.000000e+00
      vertex   8.500000e+00 -7.866025e+00 4.000000e+00
      vertex   8.000000e+00 -8.000000e+00 4.000000e+00
    endloop
  endfacet
  facet normal 0.000000e+00 0.000000e+00 1.000000e+00
    outer loop
      vertex   1.091107e+01 -1.368205e+01 4.000000e+00
      vertex   8.000000e+00 -8.000000e+00 4.000000e+00
      vertex   7.592965e+00 -1.576696e+01 4.000000e+00
    endloop
  endfacet
  facet normal 0.000000e+00 -0.000000e+00 1.000000e+00
    outer loop
      vertex   7.592965e+00 -1.576696e+01 4.000000e+00
      vertex   8.000000e+00 -8.000000e+00 4.000000e+00
      vertex   7.500000e+00 -7.866025e+00 4.000000e+00
    endloop
  endfacet
  facet normal 0.000000e+00 0.000000e+00 1.000000e+00
    outer loop
      vertex   7.592965e+00 -1.576696e+01 4.000000e+00
      vertex   7.500000e+00 -7.866025e+00 4.000000e+00
      vertex   3.894116e+00 -1.706124e+01 4.000000e+00
    endloop
  endfacet
  facet normal 0.000000e+00 0.000000e+00 1.000000e+00
    outer loop
      vertex   3.894116e+00 -1.706124e+01 4.000000e+00
      vertex   7.500000e+00 -7.866025e+00 4.000000e+00
      vertex   7.133974e+00 -7.500000e+00 4.000000e+00
    endloop
  endfacet
  facet normal 0.000000e+00 -0.000000e+00 1.000000e+00
    outer loop
      vertex   3.894116e+00 -1.706124e+01 4.000000e+00
      vertex   7.133974e+00 -7.500000e+00 4.000000e+00
      vertex   1.071566e-15 -1.750000e+01 4.000000e+00
    endloop
  endfacet
  facet normal 0.000000e+00 0.000000e+00 1.000000e+00
    outer loop
      vertex   -8.866026e+00 7.500000e+00 4.000000e+00
      vertex   -1.368205e+01 1.091107e+01 4.000000e+00
      vertex   -9.000000e+00 7.000000e+00 4.000000e+00
    endloop
  endfacet
  facet normal 0.000000e+00 0.000000e+00 1.000000e+00
    outer loop
      vertex   -9.000000e+00 7.000000e+00 4.000000e+00
      vertex   -1.368205e+01 1.091107e+01 4.000000e+00
      vertex   -1.576696e+01 7.592965e+00 4.000000e+00
    endloop
  endfacet
  facet normal 0.000000e+00 0.000000e+00 1.000000e+00
    outer loop
      vertex   -9.000000e+00 7.000000e+00 4.000000e+00
      vertex   -1.576696e+01 7.592965e+00 4.000000e+00
      vertex   -8.866026e+00 6.500000e+00 4.000000e+00
    endloop
  endfacet
  facet normal 0.000000e+00 0.000000e+00 1.000000e+00
    outer loop
      vertex   -8.866026e+00 6.500000e+00 4.000000e+00
      vertex   -1.576696e+01 7.592965e+00 4.000000e+00
      vertex   -1.706124e+01 3.894116e+00 4.000000e+00
    endloop
  endfacet
  facet normal 0.000000e+00 0.000000e+00 1.000000e+00
    outer loop
      vertex   -8.866026e+00 6.500000e+00 4.000000e+00
      vertex   -1.706124e+01 3.894116e+00 4.000000e+00
      vertex   -8.500000e+00 6.133975e+00 4.000000e+00
    endloop
  endfacet
  facet normal 0.000000e+00 0.000000e+00 1.000000e+00
    outer loop
      vertex   -8.500000e+00 6.133975e+00 4.000000e+00
      vertex   -1.706124e+01 3.894116e+00 4.000000e+00
      vertex   -1.750000e+01 -2.220446e-15 4.000000e+00
    endloop
  endfacet
  facet normal 0.000000e+00 0.000000e+00 1.000000e+00
    outer loop
      vertex   -8.500000e+00 6.133975e+00 4.000000e+00
      vertex   -1.750000e+01 -2.220446e-15 4.000000e+00
      vertex   -8.500000e+00 -6.133974e+00 4.000000e+00
    endloop
  endfacet
  facet normal 0.000000e+00 0.000000e+00 1.000000e+00
    outer loop
      vertex   -8.500000e+00 -6.133974e+00 4.000000e+00
      vertex   -1.750000e+01 -2.220446e-15 4.000000e+00
      vertex   -1.706124e+01 -3.894116e+00 4.000000e+00
    endloop
  endfacet
  facet normal 0.000000e+00 0.000000e+00 1.000000e+00
    outer loop
      vertex   -8.500000e+00 -6.133974e+00 4.000000e+00
      vertex   -1.706124e+01 -3.894116e+00 4.000000e+00
      vertex   -8.866026e+00 -6.500000e+00 4.000000e+00
    endloop
  endfacet
  facet normal 0.000000e+00 0.000000e+00 1.000000e+00
    outer loop
      vertex   -8.866026e+00 -6.500000e+00 4.000000e+00
      vertex   -1.706124e+01 -3.894116e+00 4.000000e+00
      vertex   -1.576696e+01 -7.592965e+00 4.000000e+00
    endloop
  endfacet
  facet normal 0.000000e+00 0.000000e+00 1.000000e+00
    outer loop
      vertex   -8.866026e+00 -6.500000e+00 4.000000e+00
      vertex   -1.576696e+01 -7.592965e+00 4.000000e+00
      vertex   -9.000000e+00 -7.000000e+00 4.000000e+00
    endloop
  endfacet
  facet normal 0.000000e+00 0.000000e+00 1.000000e+00
    outer loop
      vertex   -9.000000e+00 -7.000000e+00 4.000000e+00
      vertex   -1.576696e+01 -7.592965e+00 4.000000e+00
      vertex   -1.368205e+01 -1.091107e+01 4.000000e+00
    endloop
  endfacet
  facet normal 0.000000e+00 -0.000000e+00 1.000000e+00
    outer loop
      vertex   -8.866026e+00 7.500000e+00 4.000000e+00
      vertex   -8.500000e+00 7.866026e+00 4.000000e+00
      vertex   -1.368205e+01 1.091107e+01 4.000000e+00
    endloop
  endfacet
  facet normal -0.000000e+00 0.000000e+00 1.000000e+00
    outer loop
      vertex   -1.368205e+01 1.091107e+01 4.000000e+00
      vertex   -8.500000e+00 7.866026e+00 4.000000e+00
      vertex   -1.091107e+01 1.368205e+01 4.000000e+00
    endloop
  endfacet
  facet normal 0.000000e+00 0.000000e+00 1.000000e+00
    outer loop
      vertex   -1.091107e+01 1.368205e+01 4.000000e+00
      vertex   -8.500000e+00 7.866026e+00 4.000000e+00
      vertex   -8.000000e+00 8.000000e+00 4.000000e+00
    endloop
  endfacet
  facet normal -0.000000e+00 0.000000e+00 1.000000e+00
    outer loop
      vertex   -1.091107e+01 1.368205e+01 4.000000e+00
      vertex   -8.000000e+00 8.000000e+00 4.000000e+00
      vertex   -7.592965e+00 1.576696e+01 4.000000e+00
    endloop
  endfacet
  facet normal 0.000000e+00 0.000000e+00 1.000000e+00
    outer loop
      vertex   -7.592965e+00 1.576696e+01 4.000000e+00
      vertex   -8.000000e+00 8.000000e+00 4.000000e+00
      vertex   -7.500000e+00 7.866026e+00 4.000000e+00
    endloop
  endfacet
  facet normal -0.000000e+00 0.000000e+00 1.000000e+00
    outer loop
      vertex   -7.592965e+00 1.576696e+01 4.000000e+00
      vertex   -7.500000e+00 7.866026e+00 4.000000e+00
      vertex   -3.894116e+00 1.706124e+01 4.000000e+00
    endloop
  endfacet
  facet normal 0.000000e+00 0.000000e+00 1.000000e+00
    outer loop
      vertex   -3.894116e+00 1.706124e+01 4.000000e+00
      vertex   -7.500000e+00 7.866026e+00 4.000000e+00
      vertex   -7.133975e+00 7.500000e+00 4.000000e+00
    endloop
  endfacet
  facet normal -0.000000e+00 0.000000e+00 1.000000e+00
    outer loop
      vertex   -3.894116e+00 1.706124e+01 4.000000e+00
      vertex   -7.133975e+00 7.500000e+00 4.000000e+00
      vertex   1.071566e-15 1.750000e+01 4.000000e+00
    endloop
  endfacet
  facet normal 0.000000e+00 0.000000e+00 1.000000e+00
    outer loop
      vertex   7.133974e+00 -6.500000e+00 4.000000e+00
      vertex   -7.133975e+00 6.500000e+00 4.000000e+00
      vertex   -7.133975e+00 -6.500000e+00 4.000000e+00
    endloop
  endfacet
  facet normal 0.000000e+00 -0.000000e+00 1.000000e+00
    outer loop
      vertex   -7.133975e+00 -6.500000e+00 4.000000e+00
      vertex   -7.133975e+00 6.500000e+00 4.000000e+00
      vertex   -7.500000e+00 6.133975e+00 4.000000e+00
    endloop
  endfacet
  facet normal 0.000000e+00 0.000000e+00 1.000000e+00
    outer loop
      vertex   -7.133975e+00 -6.500000e+00 4.000000e+00
      vertex   -7.500000e+00 6.133975e+00 4.000000e+00
      vertex   -7.500000e+00 -6.133974e+00 4.000000e+00
    endloop
  endfacet
  facet normal 0.000000e+00 -0.000000e+00 1.000000e+00
    outer loop
      vertex   -7.500000e+00 -6.133974e+00 4.000000e+00
      vertex   -7.500000e+00 6.133975e+00 4.000000e+00
      vertex   -8.000000e+00 6.000000e+00 4.000000e+00
    endloop
  endfacet
  facet normal 0.000000e+00 0.000000e+00 1.000000e+00
    outer loop
      vertex   -7.500000e+00 -6.133974e+00 4.000000e+00
      vertex   -8.000000e+00 6.000000e+00 4.000000e+00
      vertex   -8.000000e+00 -6.000000e+00 4.000000e+00
    endloop
  endfacet
  facet normal 0.000000e+00 -0.000000e+00 1.000000e+00
    outer loop
      vertex   -8.000000e+00 -6.000000e+00 4.000000e+00
      vertex   -8.000000e+00 6.000000e+00 4.000000e+00
      vertex   -8.500000e+00 -6.133974e+00 4.000000e+00
    endloop
  endfacet
  facet normal 0.000000e+00 0.000000e+00 1.000000e+00
    outer loop
      vertex   -8.500000e+00 -6.133974e+00 4.000000e+00
      vertex   -8.000000e+00 6.000000e+00 4.000000e+00
      vertex   -8.500000e+00 6.133975e+00 4.000000e+00
    endloop
  endfacet
  facet normal 0.000000e+00 0.000000e+00 1.000000e+00
    outer loop
      vertex   1.368205e+01 1.091107e+01 4.000000e+00
      vertex   9.000000e+00 7.000000e+00 4.000000e+00
      vertex   1.576696e+01 7.592965e+00 4.000000e+00
    endloop
  endfacet
  facet normal 0.000000e+00 0.000000e+00 1.000000e+00
    outer loop
      vertex   1.576696e+01 7.592965e+00 4.000000e+00
      vertex   9.000000e+00 7.000000e+00 4.000000e+00
      vertex   8.866025e+00 6.500000e+00 4.000000e+00
    endloop
  endfacet
  facet normal 0.000000e+00 0.000000e+00 1.000000e+00
    outer loop
      vertex   1.576696e+01 7.592965e+00 4.000000e+00
      vertex   8.866025e+00 6.500000e+00 4.000000e+00
      vertex   1.706124e+01 3.894116e+00 4.000000e+00
    endloop
  endfacet
  facet normal 0.000000e+00 0.000000e+00 1.000000e+00
    outer loop
      vertex   1.706124e+01 3.894116e+00 4.000000e+00
      vertex   8.866025e+00 6.500000e+00 4.000000e+00
      vertex   8.500000e+00 6.133975e+00 4.000000e+00
    endloop
  endfacet
  facet normal 0.000000e+00 0.000000e+00 1.000000e+00
    outer loop
      vertex   1.706124e+01 3.894116e+00 4.000000e+00
      vertex   8.500000e+00 6.133975e+00 4.000000e+00
      vertex   1.750000e+01 0.000000e+00 4.000000e+00
    endloop
  endfacet
  facet normal 0.000000e+00 0.000000e+00 1.000000e+00
    outer loop
      vertex   -1.436141e+01 -1.000000e+01 2.000000e+00
      vertex   -1.608086e+01 -6.903322e+00 2.000000e+00
      vertex   -1.400000e+02 0.000000e+00 2.000000e+00
    endloop
  endfacet
  facet normal 0.000000e+00 0.000000e+00 1.000000e+00
    outer loop
      vertex   -1.400000e+02 0.000000e+00 2.000000e+00
      vertex   -1.608086e+01 -6.903322e+00 2.000000e+00
      vertex   -1.714154e+01 -3.523841e+00 2.000000e+00
    endloop
  endfacet
  facet normal 0.000000e+00 0.000000e+00 1.000000e+00
    outer loop
      vertex   -1.400000e+02 0.000000e+00 2.000000e+00
      vertex   -1.714154e+01 -3.523841e+00 2.000000e+00
      vertex   -1.750000e+01 -2.143132e-15 2.000000e+00
    endloop
  endfacet
  facet normal 0.000000e+00 -0.000000e+00 1.000000e+00
    outer loop
      vertex   -1.750000e+01 -2.143132e-15 2.000000e+00
      vertex   -1.714154e+01 3.523841e+00 2.000000e+00
      vertex   -1.400000e+02 0.000000e+00 2.000000e+00
    endloop
  endfacet
  facet normal 0.000000e+00 0.000000e+00 1.000000e+00
    outer loop
      vertex   -1.400000e+02 0.000000e+00 2.000000e+00
      vertex   -1.714154e+01 3.523841e+00 2.000000e+00
      vertex   -1.400000e+02 1.000000e+01 2.000000e+00
    endloop
  endfacet
  facet normal 0.000000e+00 0.000000e+00 1.000000e+00
    outer loop
      vertex   -1.400000e+02 1.000000e+01 2.000000e+00
      vertex   -1.714154e+01 3.523841e+00 2.000000e+00
      vertex   -1.608086e+01 6.903322e+00 2.000000e+00
    endloop
  endfacet
  facet normal -0.000000e+00 0.000000e+00 1.000000e+00
    outer loop
      vertex   -1.400000e+02 1.000000e+01 2.000000e+00
      vertex   -1.608086e+01 6.903322e+00 2.000000e+00
      vertex   -1.436141e+01 1.000000e+01 2.000000e+00
    endloop
  endfacet
  facet normal 0.000000e+00 0.000000e+00 1.000000e+00
    outer loop
      vertex   1.436141e+01 1.000000e+01 2.000000e+00
      vertex   1.608086e+01 6.903322e+00 2.000000e+00
      vertex   1.400000e+02 0.000000e+00 2.000000e+00
    endloop
  endfacet
  facet normal 0.000000e+00 0.000000e+00 1.000000e+00
    outer loop
      vertex   1.400000e+02 0.000000e+00 2.000000e+00
      vertex   1.608086e+01 6.903322e+00 2.000000e+00
      vertex   1.714154e+01 3.523841e+00 2.000000e+00
    endloop
  endfacet
  facet normal 0.000000e+00 0.000000e+00 1.000000e+00
    outer loop
      vertex   1.400000e+02 0.000000e+00 2.000000e+00
      vertex   1.714154e+01 3.523841e+00 2.000000e+00
      vertex   1.750000e+01 0.000000e+00 2.000000e+00
    endloop
  endfacet
  facet normal -0.000000e+00 0.000000e+00 1.000000e+00
    outer loop
      vertex   1.750000e+01 0.000000e+00 2.000000e+00
      vertex   1.714154e+01 -3.523841e+00 2.000000e+00
      vertex   1.400000e+02 0.000000e+00 2.000000e+00
    endloop
  endfacet
  facet normal 0.000000e+00 0.000000e+00 1.000000e+00
    outer loop
      vertex   1.400000e+02 0.000000e+00 2.000000e+00
      vertex   1.714154e+01 -3.523841e+00 2.000000e+00
      vertex   1.400000e+02 -1.000000e+01 2.000000e+00
    endloop
  endfacet
  facet normal 0.000000e+00 0.000000e+00 1.000000e+00
    outer loop
      vertex   1.400000e+02 -1.000000e+01 2.000000e+00
      vertex   1.714154e+01 -3.523841e+00 2.000000e+00
      vertex   1.608086e+01 -6.903322e+00 2.000000e+00
    endloop
  endfacet
  facet normal 0.000000e+00 0.000000e+00 1.000000e+00
    outer loop
      vertex   1.400000e+02 -1.000000e+01 2.000000e+00
      vertex   1.608086e+01 -6.903322e+00 2.000000e+00
      vertex   1.436141e+01 -1.000000e+01 2.000000e+00
    endloop
  endfacet
  facet normal 9.659258e-01 2.588190e-01 0.000000e+00
    outer loop
      vertex   -8.866026e+00 -7.500000e+00 4.000000e+00
      vertex   -8.866026e+00 -7.500000e+00 0.000000e+00
      vertex   -9.000000e+00 -7.000000e+00 4.000000e+00
    endloop
  endfacet
  facet normal 9.659258e-01 2.588190e-01 0.000000e+00
    outer loop
      vertex   -9.000000e+00 -7.000000e+00 4.000000e+00
      vertex   -8.866026e+00 -7.500000e+00 0.000000e+00
      vertex   -9.000000e+00 -7.000000e+00 0.000000e+00
    endloop
  endfacet
  facet normal 9.659258e-01 -2.588190e-01 0.000000e+00
    outer loop
      vertex   -9.000000e+00 -7.000000e+00 4.000000e+00
      vertex   -9.000000e+00 -7.000000e+00 0.000000e+00
      vertex   -8.866026e+00 -6.500000e+00 4.000000e+00
    endloop
  endfacet
  facet normal 9.659258e-01 -2.588190e-01 0.000000e+00
    outer loop
      vertex   -8.866026e+00 -6.500000e+00 4.000000e+00
      vertex   -9.000000e+00 -7.000000e+00 0.000000e+00
      vertex   -8.866026e+00 -6.500000e+00 0.000000e+00
    endloop
  endfacet
  facet normal 7.071068e-01 -7.071068e-01 0.000000e+00
    outer loop
      vertex   -8.866026e+00 -6.500000e+00 4.000000e+00
      vertex   -8.866026e+00 -6.500000e+00 0.000000e+00
      vertex   -8.500000e+00 -6.133974e+00 4.000000e+00
    endloop
  endfacet
  facet normal 7.071068e-01 -7.071068e-01 0.000000e+00
    outer loop
      vertex   -8.500000e+00 -6.133974e+00 4.000000e+00
      vertex   -8.866026e+00 -6.500000e+00 0.000000e+00
      vertex   -8.500000e+00 -6.133974e+00 0.000000e+00
    endloop
  endfacet
  facet normal 2.588190e-01 -9.659258e-01 0.000000e+00
    outer loop
      vertex   -8.500000e+00 -6.133974e+00 4.000000e+00
      vertex   -8.500000e+00 -6.133974e+00 0.000000e+00
      vertex   -8.000000e+00 -6.000000e+00 4.000000e+00
    endloop
  endfacet
  facet normal 2.588190e-01 -9.659258e-01 0.000000e+00
    outer loop
      vertex   -8.000000e+00 -6.000000e+00 4.000000e+00
      vertex   -8.500000e+00 -6.133974e+00 0.000000e+00
      vertex   -8.000000e+00 -6.000000e+00 0.000000e+00
    endloop
  endfacet
  facet normal -2.588190e-01 -9.659258e-01 -0.000000e+00
    outer loop
      vertex   -8.000000e+00 -6.000000e+00 4.000000e+00
      vertex   -8.000000e+00 -6.000000e+00 0.000000e+00
      vertex   -7.500000e+00 -6.133974e+00 4.000000e+00
    endloop
  endfacet
  facet normal -2.588190e-01 -9.659258e-01 -0.000000e+00
    outer loop
      vertex   -7.500000e+00 -6.133974e+00 4.000000e+00
      vertex   -8.000000e+00 -6.000000e+00 0.000000e+00
      vertex   -7.500000e+00 -6.133974e+00 0.000000e+00
    endloop
  endfacet
  facet normal -7.071068e-01 -7.071068e-01 -0.000000e+00
    outer loop
      vertex   -7.500000e+00 -6.133974e+00 4.000000e+00
      vertex   -7.500000e+00 -6.133974e+00 0.000000e+00
      vertex   -7.133975e+00 -6.500000e+00 4.000000e+00
    endloop
  endfacet
  facet normal -7.071068e-01 -7.071068e-01 -0.000000e+00
    outer loop
      vertex   -7.133975e+00 -6.500000e+00 4.000000e+00
      vertex   -7.500000e+00 -6.133974e+00 0.000000e+00
      vertex   -7.133975e+00 -6.500000e+00 0.000000e+00
    endloop
  endfacet
  facet normal -9.659258e-01 -2.588190e-01 -0.000000e+00
    outer loop
      vertex   -7.133975e+00 -6.500000e+00 4.000000e+00
      vertex   -7.133975e+00 -6.500000e+00 0.000000e+00
      vertex   -7.000000e+00 -7.000000e+00 4.000000e+00
    endloop
  endfacet
  facet normal -9.659258e-01 -2.588190e-01 -0.000000e+00
    outer loop
      vertex   -7.000000e+00 -7.000000e+00 4.000000e+00
      vertex   -7.133975e+00 -6.500000e+00 0.000000e+00
      vertex   -7.000000e+00 -7.000000e+00 0.000000e+00
    endloop
  endfacet
  facet normal -9.659258e-01 2.588190e-01 0.000000e+00
    outer loop
      vertex   -7.000000e+00 -7.000000e+00 4.000000e+00
      vertex   -7.000000e+00 -7.000000e+00 0.000000e+00
      vertex   -7.133975e+00 -7.500000e+00 4.000000e+00
    endloop
  endfacet
  facet normal -9.659258e-01 2.588190e-01 0.000000e+00
    outer loop
      vertex   -7.133975e+00 -7.500000e+00 4.000000e+00
      vertex   -7.000000e+00 -7.000000e+00 0.000000e+00
      vertex   -7.133975e+00 -7.500000e+00 0.000000e+00
    endloop
  endfacet
  facet normal -7.071068e-01 7.071068e-01 0.000000e+00
    outer loop
      vertex   -7.133975e+00 -7.500000e+00 4.000000e+00
      vertex   -7.133975e+00 -7.500000e+00 0.000000e+00
      vertex   -7.500000e+00 -7.866025e+00 4.000000e+00
    endloop
  endfacet
  facet normal -7.071068e-01 7.071068e-01 0.000000e+00
    outer loop
      vertex   -7.500000e+00 -7.866025e+00 4.000000e+00
      vertex   -7.133975e+00 -7.500000e+00 0.000000e+00
      vertex   -7.500000e+00 -7.866025e+00 0.000000e+00
    endloop
  endfacet
  facet normal -2.588190e-01 9.659258e-01 0.000000e+00
    outer loop
      vertex   -7.500000e+00 -7.866025e+00 4.000000e+00
      vertex   -7.500000e+00 -7.866025e+00 0.000000e+00
      vertex   -8.000000e+00 -8.000000e+00 4.000000e+00
    endloop
  endfacet
  facet normal -2.588190e-01 9.659258e-01 0.000000e+00
    outer loop
      vertex   -8.000000e+00 -8.000000e+00 4.000000e+00
      vertex   -7.500000e+00 -7.866025e+00 0.000000e+00
      vertex   -8.000000e+00 -8.000000e+00 0.000000e+00
    endloop
  endfacet
  facet normal 2.588190e-01 9.659258e-01 0.000000e+00
    outer loop
      vertex   -8.000000e+00 -8.000000e+00 4.000000e+00
      vertex   -8.000000e+00 -8.000000e+00 0.000000e+00
      vertex   -8.500000e+00 -7.866025e+00 4.000000e+00
    endloop
  endfacet
  facet normal 2.588190e-01 9.659258e-01 0.000000e+00
    outer loop
      vertex   -8.500000e+00 -7.866025e+00 4.000000e+00
      vertex   -8.000000e+00 -8.000000e+00 0.000000e+00
      vertex   -8.500000e+00 -7.866025e+00 0.000000e+00
    endloop
  endfacet
  facet normal 7.071068e-01 7.071068e-01 0.000000e+00
    outer loop
      vertex   -8.500000e+00 -7.866025e+00 4.000000e+00
      vertex   -8.500000e+00 -7.866025e+00 0.000000e+00
      vertex   -8.866026e+00 -7.500000e+00 4.000000e+00
    endloop
  endfacet
  facet normal 7.071068e-01 7.071068e-01 0.000000e+00
    outer loop
      vertex   -8.866026e+00 -7.500000e+00 4.000000e+00
      vertex   -8.500000e+00 -7.866025e+00 0.000000e+00
      vertex   -8.866026e+00 -7.500000e+00 0.000000e+00
    endloop
  endfacet
  facet normal 9.659258e-01 2.588190e-01 0.000000e+00
    outer loop
      vertex   -8.866026e+00 6.500000e+00 4.000000e+00
      vertex   -8.866026e+00 6.500000e+00 0.000000e+00
      vertex   -9.000000e+00 7.000000e+00 4.000000e+00
    endloop
  endfacet
  facet normal 9.659258e-01 2.588190e-01 0.000000e+00
    outer loop
      vertex   -9.000000e+00 7.000000e+00 4.000000e+00
      vertex   -8.866026e+00 6.500000e+00 0.000000e+00
      vertex   -9.000000e+00 7.000000e+00 0.000000e+00
    endloop
  endfacet
  facet normal 9.659258e-01 -2.588190e-01 0.000000e+00
    outer loop
      vertex   -9.000000e+00 7.000000e+00 4.000000e+00
      vertex   -9.000000e+00 7.000000e+00 0.000000e+00
      vertex   -8.866026e+00 7.500000e+00 4.000000e+00
    endloop
  endfacet
  facet normal 9.659258e-01 -2.588190e-01 0.000000e+00
    outer loop
      vertex   -8.866026e+00 7.500000e+00 4.000000e+00
      vertex   -9.000000e+00 7.000000e+00 0.000000e+00
      vertex   -8.866026e+00 7.500000e+00 0.000000e+00
    endloop
  endfacet
  facet normal 7.071068e-01 -7.071068e-01 0.000000e+00
    outer loop
      vertex   -8.866026e+00 7.500000e+00 4.000000e+00
      vertex   -8.866026e+00 7.500000e+00 0.000000e+00
      vertex   -8.500000e+00 7.866026e+00 4.000000e+00
    endloop
  endfacet
  facet normal 7.071068e-01 -7.071068e-01 0.000000e+00
    outer loop
      vertex   -8.500000e+00 7.866026e+00 4.000000e+00
      vertex   -8.866026e+00 7.500000e+00 0.000000e+00
      vertex   -8.500000e+00 7.866026e+00 0.000000e+00
    endloop
  endfacet
  facet normal 2.588190e-01 -9.659258e-01 0.000000e+00
    outer loop
      vertex   -8.500000e+00 7.866026e+00 4.000000e+00
      vertex   -8.500000e+00 7.866026e+00 0.000000e+00
      vertex   -8.000000e+00 8.000000e+00 4.000000e+00
    endloop
  endfacet
  facet normal 2.588190e-01 -9.659258e-01 0.000000e+00
    outer loop
      vertex   -8.000000e+00 8.000000e+00 4.000000e+00
      vertex   -8.500000e+00 7.866026e+00 0.000000e+00
      vertex   -8.000000e+00 8.000000e+00 0.000000e+00
    endloop
  endfacet
  facet normal -2.588190e-01 -9.659258e-01 -0.000000e+00
    outer loop
      vertex   -8.000000e+00 8.000000e+00 4.000000e+00
      vertex   -8.000000e+00 8.000000e+00 0.000000e+00
      vertex   -7.500000e+00 7.866026e+00 4.000000e+00
    endloop
  endfacet
  facet normal -2.588190e-01 -9.659258e-01 -0.000000e+00
    outer loop
      vertex   -7.500000e+00 7.866026e+00 4.000000e+00
      vertex   -8.000000e+00 8.000000e+00 0.000000e+00
      vertex   -7.500000e+00 7.866026e+00 0.000000e+00
    endloop
  endfacet
  facet normal -7.071068e-01 -7.071068e-01 -0.000000e+00
    outer loop
      vertex   -7.500000e+00 7.866026e+00 4.000000e+00
      vertex   -7.500000e+00 7.866026e+00 0.000000e+00
      vertex   -7.133975e+00 7.500000e+00 4.000000e+00
    endloop
  endfacet
  facet normal -7.071068e-01 -7.071068e-01 -0.000000e+00
    outer loop
      vertex   -7.133975e+00 7.500000e+00 4.000000e+00
      vertex   -7.500000e+00 7.866026e+00 0.000000e+00
      vertex   -7.133975e+00 7.500000e+00 0.000000e+00
    endloop
  endfacet
  facet normal -9.659258e-01 -2.588190e-01 -0.000000e+00
    outer loop
      vertex   -7.133975e+00 7.500000e+00 4.000000e+00
      vertex   -7.133975e+00 7.500000e+00 0.000000e+00
      vertex   -7.000000e+00 7.000000e+00 4.000000e+00
    endloop
  endfacet
  facet normal -9.659258e-01 -2.588190e-01 -0.000000e+00
    outer loop
      vertex   -7.000000e+00 7.000000e+00 4.000000e+00
      vertex   -7.133975e+00 7.500000e+00 0.000000e+00
      vertex   -7.000000e+00 7.000000e+00 0.000000e+00
    endloop
  endfacet
  facet normal -9.659258e-01 2.588190e-01 0.000000e+00
    outer loop
      vertex   -7.000000e+00 7.000000e+00 4.000000e+00
      vertex   -7.000000e+00 7.000000e+00 0.000000e+00
      vertex   -7.133975e+00 6.500000e+00 4.000000e+00
    endloop
  endfacet
  facet normal -9.659258e-01 2.588190e-01 0.000000e+00
    outer loop
      vertex   -7.133975e+00 6.500000e+00 4.000000e+00
      vertex   -7.000000e+00 7.000000e+00 0.000000e+00
      vertex   -7.133975e+00 6.500000e+00 0.000000e+00
    endloop
  endfacet
  facet normal -7.071068e-01 7.071068e-01 0.000000e+00
    outer loop
      vertex   -7.133975e+00 6.500000e+00 4.000000e+00
      vertex   -7.133975e+00 6.500000e+00 0.000000e+00
      vertex   -7.500000e+00 6.133975e+00 4.000000e+00
    endloop
  endfacet
  facet normal -7.071068e-01 7.071068e-01 0.000000e+00
    outer loop
      vertex   -7.500000e+00 6.133975e+00 4.000000e+00
      vertex   -7.133975e+00 6.500000e+00 0.000000e+00
      vertex   -7.500000e+00 6.133975e+00 0.000000e+00
    endloop
  endfacet
  facet normal -2.588190e-01 9.659258e-01 0.000000e+00
    outer loop
      vertex   -7.500000e+00 6.133975e+00 4.000000e+00
      vertex   -7.500000e+00 6.133975e+00 0.000000e+00
      vertex   -8.000000e+00 6.000000e+00 4.000000e+00
    endloop
  endfacet
  facet normal -2.588190e-01 9.659258e-01 0.000000e+00
    outer loop
      vertex   -8.000000e+00 6.000000e+00 4.000000e+00
      vertex   -7.500000e+00 6.133975e+00 0.000000e+00
      vertex   -8.000000e+00 6.000000e+00 0.000000e+00
    endloop
  endfacet
  facet normal 2.588190e-01 9.659258e-01 0.000000e+00
    outer loop
      vertex   -8.000000e+00 6.000000e+00 4.000000e+00
      vertex   -8.000000e+00 6.000000e+00 0.000000e+00
      vertex   -8.500000e+00 6.133975e+00 4.000000e+00
    endloop
  endfacet
  facet normal 2.588190e-01 9.659258e-01 0.000000e+00
    outer loop
      vertex   -8.500000e+00 6.133975e+00 4.000000e+00
      vertex   -8.000000e+00 6.000000e+00 0.000000e+00
      vertex   -8.500000e+00 6.133975e+00 0.000000e+00
    endloop
  endfacet
  facet normal 7.071068e-01 7.071068e-01 0.000000e+00
    outer loop
      vertex   -8.500000e+00 6.133975e+00 4.000000e+00
      vertex   -8.500000e+00 6.133975e+00 0.000000e+00
      vertex   -8.866026e+00 6.500000e+00 4.000000e+00
    endloop
  endfacet
  facet normal 7.071068e-01 7.071068e-01 0.000000e+00
    outer loop
      vertex   -8.866026e+00 6.500000e+00 4.000000e+00
      vertex   -8.500000e+00 6.133975e+00 0.000000e+00
      vertex   -8.866026e+00 6.500000e+00 0.000000e+00
    endloop
  endfacet
  facet normal 9.659258e-01 2.588190e-01 0.000000e+00
    outer loop
      vertex   7.133974e+00 -7.500000e+00 4.000000e+00
      vertex   7.133974e+00 -7.500000e+00 0.000000e+00
      vertex   7.000000e+00 -7.000000e+00 4.000000e+00
    endloop
  endfacet
  facet normal 9.659258e-01 2.588190e-01 0.000000e+00
    outer loop
      vertex   7.000000e+00 -7.000000e+00 4.000000e+00
      vertex   7.133974e+00 -7.500000e+00 0.000000e+00
      vertex   7.000000e+00 -7.000000e+00 0.000000e+00
    endloop
  endfacet
  facet normal 9.659258e-01 -2.588190e-01 0.000000e+00
    outer loop
      vertex   7.000000e+00 -7.000000e+00 4.000000e+00
      vertex   7.000000e+00 -7.000000e+00 0.000000e+00
      vertex   7.133974e+00 -6.500000e+00 4.000000e+00
    endloop
  endfacet
  facet normal 9.659258e-01 -2.588190e-01 0.000000e+00
    outer loop
      vertex   7.133974e+00 -6.500000e+00 4.000000e+00
      vertex   7.000000e+00 -7.000000e+00 0.000000e+00
      vertex   7.133974e+00 -6.500000e+00 0.000000e+00
    endloop
  endfacet
  facet normal 7.071068e-01 -7.071068e-01 0.000000e+00
    outer loop
      vertex   7.133974e+00 -6.500000e+00 4.000000e+00
      vertex   7.133974e+00 -6.500000e+00 0.000000e+00
      vertex   7.500000e+00 -6.133974e+00 4.000000e+00
    endloop
  endfacet
  facet normal 7.071068e-01 -7.071068e-01 0.000000e+00
    outer loop
      vertex   7.500000e+00 -6.133974e+00 4.000000e+00
      vertex   7.133974e+00 -6.500000e+00 0.000000e+00
      vertex   7.500000e+00 -6.133974e+00 0.000000e+00
    endloop
  endfacet
  facet normal 2.588190e-01 -9.659258e-01 0.000000e+00
    outer loop
      vertex   7.500000e+00 -6.133974e+00 4.000000e+00
      vertex   7.500000e+00 -6.133974e+00 0.000000e+00
      vertex   8.000000e+00 -6.000000e+00 4.000000e+00
    endloop
  endfacet
  facet normal 2.588190e-01 -9.659258e-01 0.000000e+00
    outer loop
      vertex   8.000000e+00 -6.000000e+00 4.000000e+00
      vertex   7.500000e+00 -6.133974e+00 0.000000e+00
      vertex   8.000000e+00 -6.000000e+00 0.000000e+00
    endloop
  endfacet
  facet normal -2.588190e-01 -9.659258e-01 -0.000000e+00
    outer loop
      vertex   8.000000e+00 -6.000000e+00 4.000000e+00
      vertex   8.000000e+00 -6.000000e+00 0.000000e+00
      vertex   8.500000e+00 -6.133974e+00 4.000000e+00
    endloop
  endfacet
  facet normal -2.588190e-01 -9.659258e-01 -0.000000e+00
    outer loop
      vertex   8.500000e+00 -6.133974e+00 4.000000e+00
      vertex   8.000000e+00 -6.000000e+00 0.000000e+00
      vertex   8.500000e+00 -6.133974e+00 0.000000e+00
    endloop
  endfacet
  facet normal -7.071068e-01 -7.071068e-01 -0.000000e+00
    outer loop
      vertex   8.500000e+00 -6.133974e+00 4.000000e+00
      vertex   8.500000e+00 -6.133974e+00 0.000000e+00
      vertex   8.866025e+00 -6.500000e+00 4.000000e+00
    endloop
  endfacet
  facet normal -7.071068e-01 -7.071068e-01 -0.000000e+00
    outer loop
      vertex   8.866025e+00 -6.500000e+00 4.000000e+00
      vertex   8.500000e+00 -6.133974e+00 0.000000e+00
      vertex   8.866025e+00 -6.500000e+00 0.000000e+00
    endloop
  endfacet
  facet normal -9.659258e-01 -2.588190e-01 -0.000000e+00
    outer loop
      vertex   8.866025e+00 -6.500000e+00 4.000000e+00
      vertex   8.866025e+00 -6.500000e+00 0.000000e+00
      vertex   9.000000e+00 -7.000000e+00 4.000000e+00
    endloop
  endfacet
  facet normal -9.659258e-01 -2.588190e-01 -0.000000e+00
    outer loop
      vertex   9.000000e+00 -7.000000e+00 4.000000e+00
      vertex   8.866025e+00 -6.500000e+00 0.000000e+00
      vertex   9.000000e+00 -7.000000e+00 0.000000e+00
    endloop
  endfacet
  facet normal -9.659258e-01 2.588190e-01 0.000000e+00
    outer loop
      vertex   9.000000e+00 -7.000000e+00 4.000000e+00
      vertex   9.000000e+00 -7.000000e+00 0.000000e+00
      vertex   8.866025e+00 -7.500000e+00 4.000000e+00
    endloop
  endfacet
  facet normal -9.659258e-01 2.588190e-01 0.000000e+00
    outer loop
      vertex   8.866025e+00 -7.500000e+00 4.000000e+00
      vertex   9.000000e+00 -7.000000e+00 0.000000e+00
      vertex   8.866025e+00 -7.500000e+00 0.000000e+00
    endloop
  endfacet
  facet normal -7.071068e-01 7.071068e-01 0.000000e+00
    outer loop
      vertex   8.866025e+00 -7.500000e+00 4.000000e+00
      vertex   8.866025e+00 -7.500000e+00 0.000000e+00
      vertex   8.500000e+00 -7.866025e+00 4.000000e+00
    endloop
  endfacet
  facet normal -7.071068e-01 7.071068e-01 0.000000e+00
    outer loop
      vertex   8.500000e+00 -7.866025e+00 4.000000e+00
      vertex   8.866025e+00 -7.500000e+00 0.000000e+00
      vertex   8.500000e+00 -7.866025e+00 0.000000e+00
    endloop
  endfacet
  facet normal -2.588190e-01 9.659258e-01 0.000000e+00
    outer loop
      vertex   8.500000e+00 -7.866025e+00 4.000000e+00
      vertex   8.500000e+00 -7.866025e+00 0.000000e+00
      vertex   8.000000e+00 -8.000000e+00 4.000000e+00
    endloop
  endfacet
  facet normal -2.588190e-01 9.659258e-01 0.000000e+00
    outer loop
      vertex   8.000000e+00 -8.000000e+00 4.000000e+00
      vertex   8.500000e+00 -7.866025e+00 0.000000e+00
      vertex   8.000000e+00 -8.000000e+00 0.000000e+00
    endloop
  endfacet
  facet normal 2.588190e-01 9.659258e-01 0.000000e+00
    outer loop
      vertex   8.000000e+00 -8.000000e+00 4.000000e+00
      vertex   8.000000e+00 -8.000000e+00 0.000000e+00
      vertex   7.500000e+00 -7.866025e+00 4.000000e+00
    endloop
  endfacet
  facet normal 2.588190e-01 9.659258e-01 0.000000e+00
    outer loop
      vertex   7.500000e+00 -7.866025e+00 4.000000e+00
      vertex   8.000000e+00 -8.000000e+00 0.000000e+00
      vertex   7.500000e+00 -7.866025e+00 0.000000e+00
    endloop
  endfacet
  facet normal 7.071068e-01 7.071068e-01 0.000000e+00
    outer loop
      vertex   7.500000e+00 -7.866025e+00 4.000000e+00
      vertex   7.500000e+00 -7.866025e+00 0.000000e+00
      vertex   7.133974e+00 -7.500000e+00 4.000000e+00
    endloop
  endfacet
  facet normal 7.071068e-01 7.071068e-01 0.000000e+00
    outer loop
      vertex   7.133974e+00 -7.500000e+00 4.000000e+00
      vertex   7.500000e+00 -7.866025e+00 0.000000e+00
      vertex   7.133974e+00 -7.500000e+00 0.000000e+00
    endloop
  endfacet
  facet normal 9.659258e-01 2.588190e-01 0.000000e+00
    outer loop
      vertex   7.133974e+00 6.500000e+00 4.000000e+00
      vertex   7.133974e+00 6.500000e+00 0.000000e+00
      vertex   7.000000e+00 7.000000e+00 4.000000e+00
    endloop
  endfacet
  facet normal 9.659258e-01 2.588190e-01 0.000000e+00
    outer loop
      vertex   7.000000e+00 7.000000e+00 4.000000e+00
      vertex   7.133974e+00 6.500000e+00 0.000000e+00
      vertex   7.000000e+00 7.000000e+00 0.000000e+00
    endloop
  endfacet
  facet normal 9.659258e-01 -2.588190e-01 0.000000e+00
    outer loop
      vertex   7.000000e+00 7.000000e+00 4.000000e+00
      vertex   7.000000e+00 7.000000e+00 0.000000e+00
      vertex   7.133974e+00 7.500000e+00 4.000000e+00
    endloop
  endfacet
  facet normal 9.659258e-01 -2.588190e-01 0.000000e+00
    outer loop
      vertex   7.133974e+00 7.500000e+00 4.000000e+00
      vertex   7.000000e+00 7.000000e+00 0.000000e+00
      vertex   7.133974e+00 7.500000e+00 0.000000e+00
    endloop
  endfacet
  facet normal 7.071068e-01 -7.071068e-01 0.000000e+00
    outer loop
      vertex   7.133974e+00 7.500000e+00 4.000000e+00
      vertex   7.133974e+00 7.500000e+00 0.000000e+00
      vertex   7.500000e+00 7.866026e+00 4.000000e+00
    endloop
  endfacet
  facet normal 7.071068e-01 -7.071068e-01 0.000000e+00
    outer loop
      vertex   7.500000e+00 7.866026e+00 4.000000e+00
      vertex   7.133974e+00 7.500000e+00 0.000000e+00
      vertex   7.500000e+00 7.866026e+00 0.000000e+00
    endloop
  endfacet
  facet normal 2.588190e-01 -9.659258e-01 0.000000e+00
    outer loop
      vertex   7.500000e+00 7.866026e+00 4.000000e+00
      vertex   7.500000e+00 7.866026e+00 0.000000e+00
      vertex   8.000000e+00 8.000000e+00 4.000000e+00
    endloop
  endfacet
  facet normal 2.588190e-01 -9.659258e-01 0.000000e+00
    outer loop
      vertex   8.000000e+00 8.000000e+00 4.000000e+00
      vertex   7.500000e+00 7.866026e+00 0.000000e+00
      vertex   8.000000e+00 8.000000e+00 0.000000e+00
    endloop
  endfacet
  facet normal -2.588190e-01 -9.659258e-01 -0.000000e+00
    outer loop
      vertex   8.000000e+00 8.000000e+00 4.000000e+00
      vertex   8.000000e+00 8.000000e+00 0.000000e+00
      vertex   8.500000e+00 7.866026e+00 4.000000e+00
    endloop
  endfacet
  facet normal -2.588190e-01 -9.659258e-01 -0.000000e+00
    outer loop
      vertex   8.500000e+00 7.866026e+00 4.000000e+00
      vertex   8.000000e+00 8.000000e+00 0.000000e+00
      vertex   8.500000e+00 7.866026e+00 0.000000e+00
    endloop
  endfacet
  facet normal -7.071068e-01 -7.071068e-01 -0.000000e+00
    outer loop
      vertex   8.500000e+00 7.866026e+00 4.000000e+00
      vertex   8.500000e+00 7.866026e+00 0.000000e+00
      vertex   8.866025e+00 7.500000e+00 4.000000e+00
    endloop
  endfacet
  facet normal -7.071068e-01 -7.071068e-01 -0.000000e+00
    outer loop
      vertex   8.866025e+00 7.500000e+00 4.000000e+00
      vertex   8.500000e+00 7.866026e+00 0.000000e+00
      vertex   8.866025e+00 7.500000e+00 0.000000e+00
    endloop
  endfacet
  facet normal -9.659258e-01 -2.588190e-01 -0.000000e+00
    outer loop
      vertex   8.866025e+00 7.500000e+00 4.000000e+00
      vertex   8.866025e+00 7.500000e+00 0.000000e+00
      vertex   9.000000e+00 7.000000e+00 4.000000e+00
    endloop
  endfacet
  facet normal -9.659258e-01 -2.588190e-01 -0.000000e+00
    outer loop
      vertex   9.000000e+00 7.000000e+00 4.000000e+00
      vertex   8.866025e+00 7.500000e+00 0.000000e+00
      vertex   9.000000e+00 7.000000e+00 0.000000e+00
    endloop
  endfacet
  facet normal -9.659258e-01 2.588190e-01 0.000000e+00
    outer loop
      vertex   9.000000e+00 7.000000e+00 4.000000e+00
      vertex   9.000000e+00 7.000000e+00 0.000000e+00
      vertex   8.866025e+00 6.500000e+00 4.000000e+00
    endloop
  endfacet
  facet normal -9.659258e-01 2.588190e-01 0.000000e+00
    outer loop
      vertex   8.866025e+00 6.500000e+00 4.000000e+00
      vertex   9.000000e+00 7.000000e+00 0.000000e+00
      vertex   8.866025e+00 6.500000e+00 0.000000e+00
    endloop
  endfacet
  facet normal -7.071068e-01 7.071068e-01 0.000000e+00
    outer loop
      vertex   8.866025e+00 6.500000e+00 4.000000e+00
      vertex   8.866025e+00 6.500000e+00 0.000000e+00
      vertex   8.500000e+00 6.133975e+00 4.000000e+00
    endloop
  endfacet
  facet normal -7.071068e-01 7.071068e-01 0.000000e+00
    outer loop
      vertex   8.500000e+00 6.133975e+00 4.000000e+00
      vertex   8.866025e+00 6.500000e+00 0.000000e+00
      vertex   8.500000e+00 6.133975e+00 0.000000e+00
    endloop
  endfacet
  facet normal -2.588190e-01 9.659258e-01 0.000000e+00
    outer loop
      vertex   8.500000e+00 6.133975e+00 4.000000e+00
      vertex   8.500000e+00 6.133975e+00 0.000000e+00
      vertex   8.000000e+00 6.000000e+00 4.000000e+00
    endloop
  endfacet
  facet normal -2.588190e-01 9.659258e-01 0.000000e+00
    outer loop
      vertex   8.000000e+00 6.000000e+00 4.000000e+00
      vertex   8.500000e+00 6.133975e+00 0.000000e+00
      vertex   8.000000e+00 6.000000e+00 0.000000e+00
    endloop
  endfacet
  facet normal 2.588190e-01 9.659258e-01 0.000000e+00
    outer loop
      vertex   8.000000e+00 6.000000e+00 4.000000e+00
      vertex   8.000000e+00 6.000000e+00 0.000000e+00
      vertex   7.500000e+00 6.133975e+00 4.000000e+00
    endloop
  endfacet
  facet normal 2.588190e-01 9.659258e-01 0.000000e+00
    outer loop
      vertex   7.500000e+00 6.133975e+00 4.000000e+00
      vertex   8.000000e+00 6.000000e+00 0.000000e+00
      vertex   7.500000e+00 6.133975e+00 0.000000e+00
    endloop
  endfacet
  facet normal 7.071068e-01 7.071068e-01 0.000000e+00
    outer loop
      vertex   7.500000e+00 6.133975e+00 4.000000e+00
      vertex   7.500000e+00 6.133975e+00 0.000000e+00
      vertex   7.133974e+00 6.500000e+00 4.000000e+00
    endloop
  endfacet
  facet normal 7.071068e-01 7.071068e-01 0.000000e+00
    outer loop
      vertex   7.133974e+00 6.500000e+00 4.000000e+00
      vertex   7.500000e+00 6.133975e+00 0.000000e+00
      vertex   7.133974e+00 6.500000e+00 0.000000e+00
    endloop
  endfacet
  facet normal -1.000000e+00 0.000000e+00 0.000000e+00
    outer loop
      vertex   -1.400000e+02 1.000000e+01 0.000000e+00
      vertex   -1.400000e+02 0.000000e+00 0.000000e+00
      vertex   -1.400000e+02 1.000000e+01 2.000000e+00
    endloop
  endfacet
  facet normal -1.000000e+00 -0.000000e+00 0.000000e+00
    outer loop
      vertex   -1.400000e+02 1.000000e+01 2.000000e+00
      vertex   -1.400000e+02 0.000000e+00 0.000000e+00
      vertex   -1.400000e+02 0.000000e+00 2.000000e+00
    endloop
  endfacet
  facet normal 0.000000e+00 1.000000e+00 -0.000000e+00
    outer loop
      vertex   -1.436141e+01 1.000000e+01 0.000000e+00
      vertex   -1.400000e+02 1.000000e+01 0.000000e+00
      vertex   -1.436141e+01 1.000000e+01 2.000000e+00
    endloop
  endfacet
  facet normal 0.000000e+00 1.000000e+00 0.000000e+00
    outer loop
      vertex   -1.436141e+01 1.000000e+01 2.000000e+00
      vertex   -1.400000e+02 1.000000e+01 0.000000e+00
      vertex   -1.400000e+02 1.000000e+01 2.000000e+00
    endloop
  endfacet
  facet normal -9.935296e-01 1.119439e-01 1.916815e-02
    outer loop
      vertex   -1.706124e+01 3.894116e+00 4.000000e+00
      vertex   -1.714154e+01 3.523841e+00 2.000000e+00
      vertex   -1.750000e+01 -2.220446e-15 4.000000e+00
    endloop
  endfacet
  facet normal -9.948660e-01 1.012007e-01 -1.763325e-15
    outer loop
      vertex   -1.750000e+01 -2.220446e-15 4.000000e+00
      vertex   -1.714154e+01 3.523841e+00 2.000000e+00
      vertex   -1.750000e+01 -2.143132e-15 2.000000e+00
    endloop
  endfacet
  facet normal -9.948660e-01 -1.012007e-01 -1.771149e-15
    outer loop
      vertex   -1.750000e+01 -2.220446e-15 4.000000e+00
      vertex   -1.750000e+01 -2.143132e-15 2.000000e+00
      vertex   -1.714154e+01 -3.523841e+00 2.000000e+00
    endloop
  endfacet
  facet normal -9.539700e-01 2.994124e-01 -1.712781e-02
    outer loop
      vertex   -1.714154e+01 3.523841e+00 2.000000e+00
      vertex   -1.706124e+01 3.894116e+00 4.000000e+00
      vertex   -1.608086e+01 6.903322e+00 2.000000e+00
    endloop
  endfacet
  facet normal -9.433299e-01 3.300854e-01 3.423855e-02
    outer loop
      vertex   -1.608086e+01 6.903322e+00 2.000000e+00
      vertex   -1.706124e+01 3.894116e+00 4.000000e+00
      vertex   -1.576696e+01 7.592965e+00 4.000000e+00
    endloop
  endfacet
  facet normal -8.738699e-01 4.852235e-01 -3.015843e-02
    outer loop
      vertex   -1.608086e+01 6.903322e+00 2.000000e+00
      vertex   -1.576696e+01 7.592965e+00 4.000000e+00
      vertex   -1.436141e+01 1.000000e+01 2.000000e+00
    endloop
  endfacet
  facet normal -8.458585e-01 5.314881e-01 4.520754e-02
    outer loop
      vertex   -1.436141e+01 1.000000e+01 2.000000e+00
      vertex   -1.576696e+01 7.592965e+00 4.000000e+00
      vertex   -1.368205e+01 1.091107e+01 4.000000e+00
    endloop
  endfacet
  facet normal -8.016644e-01 5.977744e-01 0.000000e+00
    outer loop
      vertex   -1.436141e+01 1.000000e+01 2.000000e+00
      vertex   -1.368205e+01 1.091107e+01 4.000000e+00
      vertex   -1.436141e+01 1.000000e+01 0.000000e+00
    endloop
  endfacet
  facet normal -7.547963e-01 6.556187e-01 -2.113509e-02
    outer loop
      vertex   -1.436141e+01 1.000000e+01 0.000000e+00
      vertex   -1.368205e+01 1.091107e+01 4.000000e+00
      vertex   -1.191139e+01 1.282064e+01 0.000000e+00
    endloop
  endfacet
  facet normal -7.068937e-01 7.068937e-01 2.454805e-02
    outer loop
      vertex   -1.191139e+01 1.282064e+01 0.000000e+00
      vertex   -1.368205e+01 1.091107e+01 4.000000e+00
      vertex   -1.091107e+01 1.368205e+01 4.000000e+00
    endloop
  endfacet
  facet normal -5.984026e-01 8.008704e-01 -2.282146e-02
    outer loop
      vertex   -1.191139e+01 1.282064e+01 0.000000e+00
      vertex   -1.091107e+01 1.368205e+01 4.000000e+00
      vertex   -8.918460e+00 1.505693e+01 0.000000e+00
    endloop
  endfacet
  facet normal -5.318523e-01 8.464381e-01 2.599326e-02
    outer loop
      vertex   -8.918460e+00 1.505693e+01 0.000000e+00
      vertex   -1.091107e+01 1.368205e+01 4.000000e+00
      vertex   -7.592965e+00 1.576696e+01 4.000000e+00
    endloop
  endfacet
  facet normal -4.147506e-01 9.096179e-01 -2.402602e-02
    outer loop
      vertex   -8.918460e+00 1.505693e+01 0.000000e+00
      vertex   -7.592965e+00 1.576696e+01 4.000000e+00
      vertex   -5.519037e+00 1.660693e+01 0.000000e+00
    endloop
  endfacet
  facet normal -3.301590e-01 9.435403e-01 2.695673e-02
    outer loop
      vertex   -5.519037e+00 1.660693e+01 0.000000e+00
      vertex   -7.592965e+00 1.576696e+01 4.000000e+00
      vertex   -3.894116e+00 1.706124e+01 4.000000e+00
    endloop
  endfacet
  facet normal -2.122078e-01 9.769111e-01 -2.474876e-02
    outer loop
      vertex   -5.519037e+00 1.660693e+01 0.000000e+00
      vertex   -3.894116e+00 1.706124e+01 4.000000e+00
      vertex   -1.868060e+00 1.740001e+01 0.000000e+00
    endloop
  endfacet
  facet normal -1.119223e-01 9.933381e-01 2.743846e-02
    outer loop
      vertex   -1.868060e+00 1.740001e+01 0.000000e+00
      vertex   -3.894116e+00 1.706124e+01 4.000000e+00
      vertex   1.071566e-15 1.750000e+01 4.000000e+00
    endloop
  endfacet
  facet normal 0.000000e+00 9.996877e-01 -2.498968e-02
    outer loop
      vertex   -1.868060e+00 1.740001e+01 0.000000e+00
      vertex   1.071566e-15 1.750000e+01 4.000000e+00
      vertex   1.868060e+00 1.740001e+01 0.000000e+00
    endloop
  endfacet
  facet normal 1.119223e-01 9.933381e-01 2.743846e-02
    outer loop
      vertex   1.868060e+00 1.740001e+01 0.000000e+00
      vertex   1.071566e-15 1.750000e+01 4.000000e+00
      vertex   3.894116e+00 1.706124e+01 4.000000e+00
    endloop
  endfacet
  facet normal 2.122078e-01 9.769111e-01 -2.474876e-02
    outer loop
      vertex   1.868060e+00 1.740001e+01 0.000000e+00
      vertex   3.894116e+00 1.706124e+01 4.000000e+00
      vertex   5.519037e+00 1.660693e+01 0.000000e+00
    endloop
  endfacet
  facet normal 3.301590e-01 9.435403e-01 2.695673e-02
    outer loop
      vertex   5.519037e+00 1.660693e+01 0.000000e+00
      vertex   3.894116e+00 1.706124e+01 4.000000e+00
      vertex   7.592965e+00 1.576696e+01 4.000000e+00
    endloop
  endfacet
  facet normal 4.147506e-01 9.096179e-01 -2.402602e-02
    outer loop
      vertex   5.519037e+00 1.660693e+01 0.000000e+00
      vertex   7.592965e+00 1.576696e+01 4.000000e+00
      vertex   8.918460e+00 1.505693e+01 0.000000e+00
    endloop
  endfacet
  facet normal 5.318523e-01 8.464381e-01 2.599326e-02
    outer loop
      vertex   8.918460e+00 1.505693e+01 0.000000e+00
      vertex   7.592965e+00 1.576696e+01 4.000000e+00
      vertex   1.091107e+01 1.368205e+01 4.000000e+00
    endloop
  endfacet
  facet normal 5.984026e-01 8.008704e-01 -2.282146e-02
    outer loop
      vertex   8.918460e+00 1.505693e+01 0.000000e+00
      vertex   1.091107e+01 1.368205e+01 4.000000e+00
      vertex   1.191139e+01 1.282064e+01 0.000000e+00
    endloop
  endfacet
  facet normal 7.068937e-01 7.068937e-01 2.454805e-02
    outer loop
      vertex   1.191139e+01 1.282064e+01 0.000000e+00
      vertex   1.091107e+01 1.368205e+01 4.000000e+00
      vertex   1.368205e+01 1.091107e+01 4.000000e+00
    endloop
  endfacet
  facet normal 7.547963e-01 6.556187e-01 -2.113509e-02
    outer loop
      vertex   1.191139e+01 1.282064e+01 0.000000e+00
      vertex   1.368205e+01 1.091107e+01 4.000000e+00
      vertex   1.436141e+01 1.000000e+01 0.000000e+00
    endloop
  endfacet
  facet normal 8.016644e-01 5.977744e-01 -0.000000e+00
    outer loop
      vertex   1.436141e+01 1.000000e+01 0.000000e+00
      vertex   1.368205e+01 1.091107e+01 4.000000e+00
      vertex   1.436141e+01 1.000000e+01 2.000000e+00
    endloop
  endfacet
  facet normal 8.458585e-01 5.314881e-01 4.520754e-02
    outer loop
      vertex   1.436141e+01 1.000000e+01 2.000000e+00
      vertex   1.368205e+01 1.091107e+01 4.000000e+00
      vertex   1.576696e+01 7.592965e+00 4.000000e+00
    endloop
  endfacet
  facet normal 8.738699e-01 4.852235e-01 -3.015843e-02
    outer loop
      vertex   1.436141e+01 1.000000e+01 2.000000e+00
      vertex   1.576696e+01 7.592965e+00 4.000000e+00
      vertex   1.608086e+01 6.903322e+00 2.000000e+00
    endloop
  endfacet
  facet normal 9.433299e-01 3.300854e-01 3.423855e-02
    outer loop
      vertex   1.608086e+01 6.903322e+00 2.000000e+00
      vertex   1.576696e+01 7.592965e+00 4.000000e+00
      vertex   1.706124e+01 3.894116e+00 4.000000e+00
    endloop
  endfacet
  facet normal 9.539700e-01 2.994124e-01 -1.712781e-02
    outer loop
      vertex   1.608086e+01 6.903322e+00 2.000000e+00
      vertex   1.706124e+01 3.894116e+00 4.000000e+00
      vertex   1.714154e+01 3.523841e+00 2.000000e+00
    endloop
  endfacet
  facet normal 9.935296e-01 1.119439e-01 1.916815e-02
    outer loop
      vertex   1.714154e+01 3.523841e+00 2.000000e+00
      vertex   1.706124e+01 3.894116e+00 4.000000e+00
      vertex   1.750000e+01 0.000000e+00 4.000000e+00
    endloop
  endfacet
  facet normal 9.948660e-01 1.012007e-01 0.000000e+00
    outer loop
      vertex   1.714154e+01 3.523841e+00 2.000000e+00
      vertex   1.750000e+01 0.000000e+00 4.000000e+00
      vertex   1.750000e+01 0.000000e+00 2.000000e+00
    endloop
  endfacet
  facet normal 9.948660e-01 -1.012007e-01 0.000000e+00
    outer loop
      vertex   1.750000e+01 0.000000e+00 2.000000e+00
      vertex   1.750000e+01 0.000000e+00 4.000000e+00
      vertex   1.714154e+01 -3.523841e+00 2.000000e+00
    endloop
  endfacet
  facet normal 9.935296e-01 -1.119439e-01 1.916815e-02
    outer loop
      vertex   1.714154e+01 -3.523841e+00 2.000000e+00
      vertex   1.750000e+01 0.000000e+00 4.000000e+00
      vertex   1.706124e+01 -3.894116e+00 4.000000e+00
    endloop
  endfacet
  facet normal 9.539700e-01 -2.994124e-01 -1.712781e-02
    outer loop
      vertex   1.714154e+01 -3.523841e+00 2.000000e+00
      vertex   1.706124e+01 -3.894116e+00 4.000000e+00
      vertex   1.608086e+01 -6.903322e+00 2.000000e+00
    endloop
  endfacet
  facet normal 9.433299e-01 -3.300854e-01 3.423855e-02
    outer loop
      vertex   1.608086e+01 -6.903322e+00 2.000000e+00
      vertex   1.706124e+01 -3.894116e+00 4.000000e+00
      vertex   1.576696e+01 -7.592965e+00 4.000000e+00
    endloop
  endfacet
  facet normal 8.738699e-01 -4.852235e-01 -3.015843e-02
    outer loop
      vertex   1.608086e+01 -6.903322e+00 2.000000e+00
      vertex   1.576696e+01 -7.592965e+00 4.000000e+00
      vertex   1.436141e+01 -1.000000e+01 2.000000e+00
    endloop
  endfacet
  facet normal 8.458585e-01 -5.314881e-01 4.520754e-02
    outer loop
      vertex   1.436141e+01 -1.000000e+01 2.000000e+00
      vertex   1.576696e+01 -7.592965e+00 4.000000e+00
      vertex   1.368205e+01 -1.091107e+01 4.000000e+00
    endloop
  endfacet
  facet normal 8.016644e-01 -5.977744e-01 0.000000e+00
    outer loop
      vertex   1.436141e+01 -1.000000e+01 2.000000e+00
      vertex   1.368205e+01 -1.091107e+01 4.000000e+00
      vertex   1.436141e+01 -1.000000e+01 0.000000e+00
    endloop
  endfacet
  facet normal 7.547963e-01 -6.556187e-01 -2.113509e-02
    outer loop
      vertex   1.436141e+01 -1.000000e+01 0.000000e+00
      vertex   1.368205e+01 -1.091107e+01 4.000000e+00
      vertex   1.191139e+01 -1.282064e+01 0.000000e+00
    endloop
  endfacet
  facet normal 7.068937e-01 -7.068937e-01 2.454805e-02
    outer loop
      vertex   1.191139e+01 -1.282064e+01 0.000000e+00
      vertex   1.368205e+01 -1.091107e+01 4.000000e+00
      vertex   1.091107e+01 -1.368205e+01 4.000000e+00
    endloop
  endfacet
  facet normal 5.984026e-01 -8.008704e-01 -2.282146e-02
    outer loop
      vertex   1.191139e+01 -1.282064e+01 0.000000e+00
      vertex   1.091107e+01 -1.368205e+01 4.000000e+00
      vertex   8.918460e+00 -1.505693e+01 0.000000e+00
    endloop
  endfacet
  facet normal 5.318523e-01 -8.464381e-01 2.599326e-02
    outer loop
      vertex   8.918460e+00 -1.505693e+01 0.000000e+00
      vertex   1.091107e+01 -1.368205e+01 4.000000e+00
      vertex   7.592965e+00 -1.576696e+01 4.000000e+00
    endloop
  endfacet
  facet normal 4.147506e-01 -9.096179e-01 -2.402602e-02
    outer loop
      vertex   8.918460e+00 -1.505693e+01 0.000000e+00
      vertex   7.592965e+00 -1.576696e+01 4.000000e+00
      vertex   5.519037e+00 -1.660693e+01 0.000000e+00
    endloop
  endfacet
  facet normal 3.301590e-01 -9.435403e-01 2.695673e-02
    outer loop
      vertex   5.519037e+00 -1.660693e+01 0.000000e+00
      vertex   7.592965e+00 -1.576696e+01 4.000000e+00
      vertex   3.894116e+00 -1.706124e+01 4.000000e+00
    endloop
  endfacet
  facet normal 2.122078e-01 -9.769111e-01 -2.474876e-02
    outer loop
      vertex   5.519037e+00 -1.660693e+01 0.000000e+00
      vertex   3.894116e+00 -1.706124e+01 4.000000e+00
      vertex   1.868060e+00 -1.740001e+01 0.000000e+00
    endloop
  endfacet
  facet normal 1.119223e-01 -9.933381e-01 2.743846e-02
    outer loop
      vertex   1.868060e+00 -1.740001e+01 0.000000e+00
      vertex   3.894116e+00 -1.706124e+01 4.000000e+00
      vertex   1.071566e-15 -1.750000e+01 4.000000e+00
    endloop
  endfacet
  facet normal -0.000000e+00 -9.996877e-01 -2.498968e-02
    outer loop
      vertex   1.868060e+00 -1.740001e+01 0.000000e+00
      vertex   1.071566e-15 -1.750000e+01 4.000000e+00
      vertex   -1.868060e+00 -1.740001e+01 0.000000e+00
    endloop
  endfacet
  facet normal -1.119223e-01 -9.933381e-01 2.743846e-02
    outer loop
      vertex   -1.868060e+00 -1.740001e+01 0.000000e+00
      vertex   1.071566e-15 -1.750000e+01 4.000000e+00
      vertex   -3.894116e+00 -1.706124e+01 4.000000e+00
    endloop
  endfacet
  facet normal -2.122078e-01 -9.769111e-01 -2.474876e-02
    outer loop
      vertex   -1.868060e+00 -1.740001e+01 0.000000e+00
      vertex   -3.894116e+00 -1.706124e+01 4.000000e+00
      vertex   -5.519037e+00 -1.660693e+01 0.000000e+00
    endloop
  endfacet
  facet normal -3.301590e-01 -9.435403e-01 2.695673e-02
    outer loop
      vertex   -5.519037e+00 -1.660693e+01 0.000000e+00
      vertex   -3.894116e+00 -1.706124e+01 4.000000e+00
      vertex   -7.592965e+00 -1.576696e+01 4.000000e+00
    endloop
  endfacet
  facet normal -4.147506e-01 -9.096179e-01 -2.402602e-02
    outer loop
      vertex   -5.519037e+00 -1.660693e+01 0.000000e+00
      vertex   -7.592965e+00 -1.576696e+01 4.000000e+00
      vertex   -8.918460e+00 -1.505693e+01 0.000000e+00
    endloop
  endfacet
  facet normal -5.318523e-01 -8.464381e-01 2.599326e-02
    outer loop
      vertex   -8.918460e+00 -1.505693e+01 0.000000e+00
      vertex   -7.592965e+00 -1.576696e+01 4.000000e+00
      vertex   -1.091107e+01 -1.368205e+01 4.000000e+00
    endloop
  endfacet
  facet normal -5.984026e-01 -8.008704e-01 -2.282146e-02
    outer loop
      vertex   -8.918460e+00 -1.505693e+01 0.000000e+00
      vertex   -1.091107e+01 -1.368205e+01 4.000000e+00
      vertex   -1.191139e+01 -1.282064e+01 0.000000e+00
    endloop
  endfacet
  facet normal -7.068937e-01 -7.068937e-01 2.454805e-02
    outer loop
      vertex   -1.191139e+01 -1.282064e+01 0.000000e+00
      vertex   -1.091107e+01 -1.368205e+01 4.000000e+00
      vertex   -1.368205e+01 -1.091107e+01 4.000000e+00
    endloop
  endfacet
  facet normal -7.547963e-01 -6.556187e-01 -2.113509e-02
    outer loop
      vertex   -1.191139e+01 -1.282064e+01 0.000000e+00
      vertex   -1.368205e+01 -1.091107e+01 4.000000e+00
      vertex   -1.436141e+01 -1.000000e+01 0.000000e+00
    endloop
  endfacet
  facet normal -8.016644e-01 -5.977744e-01 0.000000e+00
    outer loop
      vertex   -1.436141e+01 -1.000000e+01 0.000000e+00
      vertex   -1.368205e+01 -1.091107e+01 4.000000e+00
      vertex   -1.436141e+01 -1.000000e+01 2.000000e+00
    endloop
  endfacet
  facet normal -8.458585e-01 -5.314881e-01 4.520754e-02
    outer loop
      vertex   -1.436141e+01 -1.000000e+01 2.000000e+00
      vertex   -1.368205e+01 -1.091107e+01 4.000000e+00
      vertex   -1.576696e+01 -7.592965e+00 4.000000e+00
    endloop
  endfacet
  facet normal -8.738699e-01 -4.852235e-01 -3.015843e-02
    outer loop
      vertex   -1.436141e+01 -1.000000e+01 2.000000e+00
      vertex   -1.576696e+01 -7.592965e+00 4.000000e+00
      vertex   -1.608086e+01 -6.903322e+00 2.000000e+00
    endloop
  endfacet
  facet normal -9.433299e-01 -3.300854e-01 3.423855e-02
    outer loop
      vertex   -1.608086e+01 -6.903322e+00 2.000000e+00
      vertex   -1.576696e+01 -7.592965e+00 4.000000e+00
      vertex   -1.706124e+01 -3.894116e+00 4.000000e+00
    endloop
  endfacet
  facet normal -9.539700e-01 -2.994124e-01 -1.712781e-02
    outer loop
      vertex   -1.608086e+01 -6.903322e+00 2.000000e+00
      vertex   -1.706124e+01 -3.894116e+00 4.000000e+00
      vertex   -1.714154e+01 -3.523841e+00 2.000000e+00
    endloop
  endfacet
  facet normal -9.935296e-01 -1.119439e-01 1.916815e-02
    outer loop
      vertex   -1.714154e+01 -3.523841e+00 2.000000e+00
      vertex   -1.706124e+01 -3.894116e+00 4.000000e+00
      vertex   -1.750000e+01 -2.220446e-15 4.000000e+00
    endloop
  endfacet
  facet normal 7.934245e-02 9.968474e-01 -0.000000e+00
    outer loop
      vertex   1.400000e+02 0.000000e+00 0.000000e+00
      vertex   1.436141e+01 1.000000e+01 0.000000e+00
      vertex   1.400000e+02 0.000000e+00 2.000000e+00
    endloop
  endfacet
  facet normal 7.934245e-02 9.968474e-01 0.000000e+00
    outer loop
      vertex   1.400000e+02 0.000000e+00 2.000000e+00
      vertex   1.436141e+01 1.000000e+01 0.000000e+00
      vertex   1.436141e+01 1.000000e+01 2.000000e+00
    endloop
  endfacet
  facet normal 1.000000e+00 2.086163e-07 -0.000000e+00
    outer loop
      vertex   1.400000e+02 -1.000000e+01 0.000000e+00
      vertex   1.400000e+02 0.000000e+00 0.000000e+00
      vertex   1.400000e+02 -1.000000e+01 2.000000e+00
    endloop
  endfacet
  facet normal 1.000000e+00 2.086163e-07 0.000000e+00
    outer loop
      vertex   1.400000e+02 -1.000000e+01 2.000000e+00
      vertex   1.400000e+02 0.000000e+00 0.000000e+00
      vertex   1.400000e+02 0.000000e+00 2.000000e+00
    endloop
  endfacet
  facet normal 0.000000e+00 -1.000000e+00 0.000000e+00
    outer loop
      vertex   1.436141e+01 -1.000000e+01 0.000000e+00
      vertex   1.400000e+02 -1.000000e+01 0.000000e+00
      vertex   1.436141e+01 -1.000000e+01 2.000000e+00
    endloop
  endfacet
  facet normal 0.000000e+00 -1.000000e+00 0.000000e+00
    outer loop
      vertex   1.436141e+01 -1.000000e+01 2.000000e+00
      vertex   1.400000e+02 -1.000000e+01 0.000000e+00
      vertex   1.400000e+02 -1.000000e+01 2.000000e+00
    endloop
  endfacet
  facet normal -7.934245e-02 -9.968474e-01 0.000000e+00
    outer loop
      vertex   -1.400000e+02 0.000000e+00 0.000000e+00
      vertex   -1.436141e+01 -1.000000e+01 0.000000e+00
      vertex   -1.400000e+02 0.000000e+00 2.000000e+00
    endloop
  endfacet
  facet normal -7.934245e-02 -9.968474e-01 0.000000e+00
    outer loop
      vertex   -1.400000e+02 0.000000e+00 2.000000e+00
      vertex   -1.436141e+01 -1.000000e+01 0.000000e+00
      vertex   -1.436141e+01 -1.000000e+01 2.000000e+00
    endloop
  endfacet
  facet normal -0.000000e+00 0.000000e+00 -1.000000e+00
    outer loop
      vertex   -8.866026e+00 -7.500000e+00 0.000000e+00
      vertex   -1.436141e+01 -1.000000e+01 0.000000e+00
      vertex   -9.000000e+00 -7.000000e+00 0.000000e+00
    endloop
  endfacet
  facet normal -0.000000e+00 0.000000e+00 -1.000000e+00
    outer loop
      vertex   -9.000000e+00 -7.000000e+00 0.000000e+00
      vertex   -1.436141e+01 -1.000000e+01 0.000000e+00
      vertex   -1.400000e+02 0.000000e+00 0.000000e+00
    endloop
  endfacet
  facet normal 0.000000e+00 0.000000e+00 -1.000000e+00
    outer loop
      vertex   -9.000000e+00 -7.000000e+00 0.000000e+00
      vertex   -1.400000e+02 0.000000e+00 0.000000e+00
      vertex   -8.866026e+00 -6.500000e+00 0.000000e+00
    endloop
  endfacet
  facet normal 0.000000e+00 0.000000e+00 -1.000000e+00
    outer loop
      vertex   -8.866026e+00 -6.500000e+00 0.000000e+00
      vertex   -1.400000e+02 0.000000e+00 0.000000e+00
      vertex   -8.500000e+00 -6.133974e+00 0.000000e+00
    endloop
  endfacet
  facet normal 0.000000e+00 0.000000e+00 -1.000000e+00
    outer loop
      vertex   -8.500000e+00 -6.133974e+00 0.000000e+00
      vertex   -1.400000e+02 0.000000e+00 0.000000e+00
      vertex   -8.000000e+00 -6.000000e+00 0.000000e+00
    endloop
  endfacet
  facet normal 0.000000e+00 0.000000e+00 -1.000000e+00
    outer loop
      vertex   -8.000000e+00 -6.000000e+00 0.000000e+00
      vertex   -1.400000e+02 0.000000e+00 0.000000e+00
      vertex   -8.000000e+00 6.000000e+00 0.000000e+00
    endloop
  endfacet
  facet normal 0.000000e+00 0.000000e+00 -1.000000e+00
    outer loop
      vertex   -8.000000e+00 -6.000000e+00 0.000000e+00
      vertex   -8.000000e+00 6.000000e+00 0.000000e+00
      vertex   8.000000e+00 6.000000e+00 0.000000e+00
    endloop
  endfacet
  facet normal 0.000000e+00 0.000000e+00 -1.000000e+00
    outer loop
      vertex   8.000000e+00 6.000000e+00 0.000000e+00
      vertex   -8.000000e+00 6.000000e+00 0.000000e+00
      vertex   7.500000e+00 6.133975e+00 0.000000e+00
    endloop
  endfacet
  facet normal -0.000000e+00 0.000000e+00 -1.000000e+00
    outer loop
      vertex   7.500000e+00 6.133975e+00 0.000000e+00
      vertex   -8.000000e+00 6.000000e+00 0.000000e+00
      vertex   -7.500000e+00 6.133975e+00 0.000000e+00
    endloop
  endfacet
  facet normal 0.000000e+00 0.000000e+00 -1.000000e+00
    outer loop
      vertex   7.500000e+00 6.133975e+00 0.000000e+00
      vertex   -7.500000e+00 6.133975e+00 0.000000e+00
      vertex   7.133974e+00 6.500000e+00 0.000000e+00
    endloop
  endfacet
  facet normal -0.000000e+00 0.000000e+00 -1.000000e+00
    outer loop
      vertex   7.133974e+00 6.500000e+00 0.000000e+00
      vertex   -7.500000e+00 6.133975e+00 0.000000e+00
      vertex   -7.133975e+00 6.500000e+00 0.000000e+00
    endloop
  endfacet
  facet normal 0.000000e+00 0.000000e+00 -1.000000e+00
    outer loop
      vertex   7.133974e+00 6.500000e+00 0.000000e+00
      vertex   -7.133975e+00 6.500000e+00 0.000000e+00
      vertex   7.000000e+00 7.000000e+00 0.000000e+00
    endloop
  endfacet
  facet normal -0.000000e+00 0.000000e+00 -1.000000e+00
    outer loop
      vertex   7.000000e+00 7.000000e+00 0.000000e+00
      vertex   -7.133975e+00 6.500000e+00 0.000000e+00
      vertex   -7.000000e+00 7.000000e+00 0.000000e+00
    endloop
  endfacet
  facet normal 0.000000e+00 0.000000e+00 -1.000000e+00
    outer loop
      vertex   7.000000e+00 7.000000e+00 0.000000e+00
      vertex   -7.000000e+00 7.000000e+00 0.000000e+00
      vertex   7.133974e+00 7.500000e+00 0.000000e+00
    endloop
  endfacet
  facet normal -0.000000e+00 0.000000e+00 -1.000000e+00
    outer loop
      vertex   7.133974e+00 7.500000e+00 0.000000e+00
      vertex   -7.000000e+00 7.000000e+00 0.000000e+00
      vertex   -7.133975e+00 7.500000e+00 0.000000e+00
    endloop
  endfacet
  facet normal 0.000000e+00 0.000000e+00 -1.000000e+00
    outer loop
      vertex   7.133974e+00 7.500000e+00 0.000000e+00
      vertex   -7.133975e+00 7.500000e+00 0.000000e+00
      vertex   7.500000e+00 7.866026e+00 0.000000e+00
    endloop
  endfacet
  facet normal 0.000000e+00 0.000000e+00 -1.000000e+00
    outer loop
      vertex   7.500000e+00 7.866026e+00 0.000000e+00
      vertex   -7.133975e+00 7.500000e+00 0.000000e+00
      vertex   -7.500000e+00 7.866026e+00 0.000000e+00
    endloop
  endfacet
  facet normal -0.000000e+00 0.000000e+00 -1.000000e+00
    outer loop
      vertex   7.500000e+00 7.866026e+00 0.000000e+00
      vertex   -7.500000e+00 7.866026e+00 0.000000e+00
      vertex   8.000000e+00 8.000000e+00 0.000000e+00
    endloop
  endfacet
  facet normal -0.000000e+00 0.000000e+00 -1.000000e+00
    outer loop
      vertex   8.000000e+00 8.000000e+00 0.000000e+00
      vertex   -7.500000e+00 7.866026e+00 0.000000e+00
      vertex   -8.000000e+00 8.000000e+00 0.000000e+00
    endloop
  endfacet
  facet normal 0.000000e+00 0.000000e+00 -1.000000e+00
    outer loop
      vertex   8.000000e+00 8.000000e+00 0.000000e+00
      vertex   -8.000000e+00 8.000000e+00 0.000000e+00
      vertex   -1.436141e+01 1.000000e+01 0.000000e+00
    endloop
  endfacet
  facet normal 0.000000e+00 0.000000e+00 -1.000000e+00
    outer loop
      vertex   -1.436141e+01 1.000000e+01 0.000000e+00
      vertex   -8.000000e+00 8.000000e+00 0.000000e+00
      vertex   -8.500000e+00 7.866026e+00 0.000000e+00
    endloop
  endfacet
  facet normal 0.000000e+00 0.000000e+00 -1.000000e+00
    outer loop
      vertex   -1.436141e+01 1.000000e+01 0.000000e+00
      vertex   -8.500000e+00 7.866026e+00 0.000000e+00
      vertex   -8.866026e+00 7.500000e+00 0.000000e+00
    endloop
  endfacet
  facet normal 0.000000e+00 -0.000000e+00 -1.000000e+00
    outer loop
      vertex   -8.866026e+00 -7.500000e+00 0.000000e+00
      vertex   -8.500000e+00 -7.866025e+00 0.000000e+00
      vertex   -1.436141e+01 -1.000000e+01 0.000000e+00
    endloop
  endfacet
  facet normal 0.000000e+00 0.000000e+00 -1.000000e+00
    outer loop
      vertex   -1.436141e+01 -1.000000e+01 0.000000e+00
      vertex   -8.500000e+00 -7.866025e+00 0.000000e+00
      vertex   -8.000000e+00 -8.000000e+00 0.000000e+00
    endloop
  endfacet
  facet normal 0.000000e+00 0.000000e+00 -1.000000e+00
    outer loop
      vertex   -1.436141e+01 -1.000000e+01 0.000000e+00
      vertex   -8.000000e+00 -8.000000e+00 0.000000e+00
      vertex   8.000000e+00 -8.000000e+00 0.000000e+00
    endloop
  endfacet
  facet normal 0.000000e+00 0.000000e+00 -1.000000e+00
    outer loop
      vertex   8.000000e+00 -8.000000e+00 0.000000e+00
      vertex   -8.000000e+00 -8.000000e+00 0.000000e+00
      vertex   7.500000e+00 -7.866025e+00 0.000000e+00
    endloop
  endfacet
  facet normal -0.000000e+00 0.000000e+00 -1.000000e+00
    outer loop
      vertex   7.500000e+00 -7.866025e+00 0.000000e+00
      vertex   -8.000000e+00 -8.000000e+00 0.000000e+00
      vertex   -7.500000e+00 -7.866025e+00 0.000000e+00
    endloop
  endfacet
  facet normal 0.000000e+00 0.000000e+00 -1.000000e+00
    outer loop
      vertex   7.500000e+00 -7.866025e+00 0.000000e+00
      vertex   -7.500000e+00 -7.866025e+00 0.000000e+00
      vertex   7.133974e+00 -7.500000e+00 0.000000e+00
    endloop
  endfacet
  facet normal -0.000000e+00 0.000000e+00 -1.000000e+00
    outer loop
      vertex   7.133974e+00 -7.500000e+00 0.000000e+00
      vertex   -7.500000e+00 -7.866025e+00 0.000000e+00
      vertex   -7.133975e+00 -7.500000e+00 0.000000e+00
    endloop
  endfacet
  facet normal 0.000000e+00 0.000000e+00 -1.000000e+00
    outer loop
      vertex   7.133974e+00 -7.500000e+00 0.000000e+00
      vertex   -7.133975e+00 -7.500000e+00 0.000000e+00
      vertex   7.000000e+00 -7.000000e+00 0.000000e+00
    endloop
  endfacet
  facet normal -0.000000e+00 0.000000e+00 -1.000000e+00
    outer loop
      vertex   7.000000e+00 -7.000000e+00 0.000000e+00
      vertex   -7.133975e+00 -7.500000e+00 0.000000e+00
      vertex   -7.000000e+00 -7.000000e+00 0.000000e+00
    endloop
  endfacet
  facet normal 0.000000e+00 0.000000e+00 -1.000000e+00
    outer loop
      vertex   7.000000e+00 -7.000000e+00 0.000000e+00
      vertex   -7.000000e+00 -7.000000e+00 0.000000e+00
      vertex   7.133974e+00 -6.500000e+00 0.000000e+00
    endloop
  endfacet
  facet normal -0.000000e+00 0.000000e+00 -1.000000e+00
    outer loop
      vertex   7.133974e+00 -6.500000e+00 0.000000e+00
      vertex   -7.000000e+00 -7.000000e+00 0.000000e+00
      vertex   -7.133975e+00 -6.500000e+00 0.000000e+00
    endloop
  endfacet
  facet normal 0.000000e+00 0.000000e+00 -1.000000e+00
    outer loop
      vertex   7.133974e+00 -6.500000e+00 0.000000e+00
      vertex   -7.133975e+00 -6.500000e+00 0.000000e+00
      vertex   7.500000e+00 -6.133974e+00 0.000000e+00
    endloop
  endfacet
  facet normal -0.000000e+00 0.000000e+00 -1.000000e+00
    outer loop
      vertex   7.500000e+00 -6.133974e+00 0.000000e+00
      vertex   -7.133975e+00 -6.500000e+00 0.000000e+00
      vertex   -7.500000e+00 -6.133974e+00 0.000000e+00
    endloop
  endfacet
  facet normal 0.000000e+00 0.000000e+00 -1.000000e+00
    outer loop
      vertex   7.500000e+00 -6.133974e+00 0.000000e+00
      vertex   -7.500000e+00 -6.133974e+00 0.000000e+00
      vertex   8.000000e+00 -6.000000e+00 0.000000e+00
    endloop
  endfacet
  facet normal -0.000000e+00 0.000000e+00 -1.000000e+00
    outer loop
      vertex   8.000000e+00 -6.000000e+00 0.000000e+00
      vertex   -7.500000e+00 -6.133974e+00 0.000000e+00
      vertex   -8.000000e+00 -6.000000e+00 0.000000e+00
    endloop
  endfacet
  facet normal 0.000000e+00 0.000000e+00 -1.000000e+00
    outer loop
      vertex   8.000000e+00 -6.000000e+00 0.000000e+00
      vertex   -8.000000e+00 -6.000000e+00 0.000000e+00
      vertex   8.000000e+00 6.000000e+00 0.000000e+00
    endloop
  endfacet
  facet normal 0.000000e+00 0.000000e+00 -1.000000e+00
    outer loop
      vertex   -8.866026e+00 6.500000e+00 0.000000e+00
      vertex   -1.400000e+02 1.000000e+01 0.000000e+00
      vertex   -9.000000e+00 7.000000e+00 0.000000e+00
    endloop
  endfacet
  facet normal 0.000000e+00 0.000000e+00 -1.000000e+00
    outer loop
      vertex   -9.000000e+00 7.000000e+00 0.000000e+00
      vertex   -1.400000e+02 1.000000e+01 0.000000e+00
      vertex   -1.436141e+01 1.000000e+01 0.000000e+00
    endloop
  endfacet
  facet normal 0.000000e+00 0.000000e+00 -1.000000e+00
    outer loop
      vertex   -9.000000e+00 7.000000e+00 0.000000e+00
      vertex   -1.436141e+01 1.000000e+01 0.000000e+00
      vertex   -8.866026e+00 7.500000e+00 0.000000e+00
    endloop
  endfacet
  facet normal -0.000000e+00 -0.000000e+00 -1.000000e+00
    outer loop
      vertex   -8.866026e+00 6.500000e+00 0.000000e+00
      vertex   -8.500000e+00 6.133975e+00 0.000000e+00
      vertex   -1.400000e+02 1.000000e+01 0.000000e+00
    endloop
  endfacet
  facet normal 0.000000e+00 0.000000e+00 -1.000000e+00
    outer loop
      vertex   -1.400000e+02 1.000000e+01 0.000000e+00
      vertex   -8.500000e+00 6.133975e+00 0.000000e+00
      vertex   -1.400000e+02 0.000000e+00 0.000000e+00
    endloop
  endfacet
  facet normal 0.000000e+00 0.000000e+00 -1.000000e+00
    outer loop
      vertex   -1.400000e+02 0.000000e+00 0.000000e+00
      vertex   -8.500000e+00 6.133975e+00 0.000000e+00
      vertex   -8.000000e+00 6.000000e+00 0.000000e+00
    endloop
  endfacet
  facet normal 0.000000e+00 0.000000e+00 -1.000000e+00
    outer loop
      vertex   -1.436141e+01 -1.000000e+01 0.000000e+00
      vertex   8.000000e+00 -8.000000e+00 0.000000e+00
      vertex   1.436141e+01 -1.000000e+01 0.000000e+00
    endloop
  endfacet
  facet normal 0.000000e+00 0.000000e+00 -1.000000e+00
    outer loop
      vertex   1.436141e+01 -1.000000e+01 0.000000e+00
      vertex   8.000000e+00 -8.000000e+00 0.000000e+00
      vertex   8.500000e+00 -7.866025e+00 0.000000e+00
    endloop
  endfacet
  facet normal 0.000000e+00 0.000000e+00 -1.000000e+00
    outer loop
      vertex   1.436141e+01 -1.000000e+01 0.000000e+00
      vertex   8.500000e+00 -7.866025e+00 0.000000e+00
      vertex   8.866025e+00 -7.500000e+00 0.000000e+00
    endloop
  endfacet
  facet normal 0.000000e+00 0.000000e+00 -1.000000e+00
    outer loop
      vertex   8.866025e+00 -7.500000e+00 0.000000e+00
      vertex   9.000000e+00 -7.000000e+00 0.000000e+00
      vertex   1.436141e+01 -1.000000e+01 0.000000e+00
    endloop
  endfacet
  facet normal 0.000000e+00 0.000000e+00 -1.000000e+00
    outer loop
      vertex   1.436141e+01 -1.000000e+01 0.000000e+00
      vertex   9.000000e+00 -7.000000e+00 0.000000e+00
      vertex   1.400000e+02 -1.000000e+01 0.000000e+00
    endloop
  endfacet
  facet normal 0.000000e+00 0.000000e+00 -1.000000e+00
    outer loop
      vertex   1.400000e+02 -1.000000e+01 0.000000e+00
      vertex   9.000000e+00 -7.000000e+00 0.000000e+00
      vertex   8.866025e+00 -6.500000e+00 0.000000e+00
    endloop
  endfacet
  facet normal 0.000000e+00 0.000000e+00 -1.000000e+00
    outer loop
      vertex   1.400000e+02 -1.000000e+01 0.000000e+00
      vertex   8.866025e+00 -6.500000e+00 0.000000e+00
      vertex   8.500000e+00 -6.133974e+00 0.000000e+00
    endloop
  endfacet
  facet normal 0.000000e+00 0.000000e+00 -1.000000e+00
    outer loop
      vertex   1.400000e+02 -1.000000e+01 0.000000e+00
      vertex   8.500000e+00 -6.133974e+00 0.000000e+00
      vertex   1.400000e+02 0.000000e+00 0.000000e+00
    endloop
  endfacet
  facet normal 0.000000e+00 0.000000e+00 -1.000000e+00
    outer loop
      vertex   1.400000e+02 0.000000e+00 0.000000e+00
      vertex   8.500000e+00 -6.133974e+00 0.000000e+00
      vertex   8.000000e+00 -6.000000e+00 0.000000e+00
    endloop
  endfacet
  facet normal -0.000000e+00 0.000000e+00 -1.000000e+00
    outer loop
      vertex   1.400000e+02 0.000000e+00 0.000000e+00
      vertex   8.000000e+00 -6.000000e+00 0.000000e+00
      vertex   8.000000e+00 6.000000e+00 0.000000e+00
    endloop
  endfacet
  facet normal 0.000000e+00 0.000000e+00 -1.000000e+00
    outer loop
      vertex   8.000000e+00 6.000000e+00 0.000000e+00
      vertex   8.500000e+00 6.133975e+00 0.000000e+00
      vertex   1.400000e+02 0.000000e+00 0.000000e+00
    endloop
  endfacet
  facet normal 0.000000e+00 0.000000e+00 -1.000000e+00
    outer loop
      vertex   1.400000e+02 0.000000e+00 0.000000e+00
      vertex   8.500000e+00 6.133975e+00 0.000000e+00
      vertex   8.866025e+00 6.500000e+00 0.000000e+00
    endloop
  endfacet
  facet normal 0.000000e+00 0.000000e+00 -1.000000e+00
    outer loop
      vertex   1.400000e+02 0.000000e+00 0.000000e+00
      vertex   8.866025e+00 6.500000e+00 0.000000e+00
      vertex   9.000000e+00 7.000000e+00 0.000000e+00
    endloop
  endfacet
  facet normal 0.000000e+00 0.000000e+00 -1.000000e+00
    outer loop
      vertex   1.400000e+02 0.000000e+00 0.000000e+00
      vertex   9.000000e+00 7.000000e+00 0.000000e+00
      vertex   1.436141e+01 1.000000e+01 0.000000e+00
    endloop
  endfacet
  facet normal 0.000000e+00 0.000000e+00 -1.000000e+00
    outer loop
      vertex   1.436141e+01 1.000000e+01 0.000000e+00
      vertex   9.000000e+00 7.000000e+00 0.000000e+00
      vertex   8.866025e+00 7.500000e+00 0.000000e+00
    endloop
  endfacet
  facet normal 0.000000e+00 0.000000e+00 -1.000000e+00
    outer loop
      vertex   1.436141e+01 1.000000e+01 0.000000e+00
      vertex   8.866025e+00 7.500000e+00 0.000000e+00
      vertex   8.500000e+00 7.866026e+00 0.000000e+00
    endloop
  endfacet
  facet normal 0.000000e+00 0.000000e+00 -1.000000e+00
    outer loop
      vertex   8.500000e+00 7.866026e+00 0.000000e+00
      vertex   8.000000e+00 8.000000e+00 0.000000e+00
      vertex   1.436141e+01 1.000000e+01 0.000000e+00
    endloop
  endfacet
  facet normal -0.000000e+00 0.000000e+00 -1.000000e+00
    outer loop
      vertex   1.436141e+01 1.000000e+01 0.000000e+00
      vertex   8.000000e+00 8.000000e+00 0.000000e+00
      vertex   -1.436141e+01 1.000000e+01 0.000000e+00
    endloop
  endfacet
  facet normal 0.000000e+00 0.000000e+00 -1.000000e+00
    outer loop
      vertex   1.436141e+01 1.000000e+01 0.000000e+00
      vertex   -1.436141e+01 1.000000e+01 0.000000e+00
      vertex   1.191139e+01 1.282064e+01 0.000000e+00
    endloop
  endfacet
  facet normal -0.000000e+00 0.000000e+00 -1.000000e+00
    outer loop
      vertex   1.191139e+01 1.282064e+01 0.000000e+00
      vertex   -1.436141e+01 1.000000e+01 0.000000e+00
      vertex   -1.191139e+01 1.282064e+01 0.000000e+00
    endloop
  endfacet
  facet normal 0.000000e+00 0.000000e+00 -1.000000e+00
    outer loop
      vertex   1.191139e+01 1.282064e+01 0.000000e+00
      vertex   -1.191139e+01 1.282064e+01 0.000000e+00
      vertex   8.918460e+00 1.505693e+01 0.000000e+00
    endloop
  endfacet
  facet normal -0.000000e+00 0.000000e+00 -1.000000e+00
    outer loop
      vertex   8.918460e+00 1.505693e+01 0.000000e+00
      vertex   -1.191139e+01 1.282064e+01 0.000000e+00
      vertex   -8.918460e+00 1.505693e+01 0.000000e+00
    endloop
  endfacet
  facet normal 0.000000e+00 0.000000e+00 -1.000000e+00
    outer loop
      vertex   8.918460e+00 1.505693e+01 0.000000e+00
      vertex   -8.918460e+00 1.505693e+01 0.000000e+00
      vertex   5.519037e+00 1.660693e+01 0.000000e+00
    endloop
  endfacet
  facet normal -0.000000e+00 0.000000e+00 -1.000000e+00
    outer loop
      vertex   5.519037e+00 1.660693e+01 0.000000e+00
      vertex   -8.918460e+00 1.505693e+01 0.000000e+00
      vertex   -5.519037e+00 1.660693e+01 0.000000e+00
    endloop
  endfacet
  facet normal 0.000000e+00 0.000000e+00 -1.000000e+00
    outer loop
      vertex   5.519037e+00 1.660693e+01 0.000000e+00
      vertex   -5.519037e+00 1.660693e+01 0.000000e+00
      vertex   1.868060e+00 1.740001e+01 0.000000e+00
    endloop
  endfacet
  facet normal -0.000000e+00 0.000000e+00 -1.000000e+00
    outer loop
      vertex   1.868060e+00 1.740001e+01 0.000000e+00
      vertex   -5.519037e+00 1.660693e+01 0.000000e+00
      vertex   -1.868060e+00 1.740001e+01 0.000000e+00
    endloop
  endfacet
  facet normal 0.000000e+00 0.000000e+00 -1.000000e+00
    outer loop
      vertex   -1.436141e+01 -1.000000e+01 0.000000e+00
      vertex   1.436141e+01 -1.000000e+01 0.000000e+00
      vertex   -1.191139e+01 -1.282064e+01 0.000000e+00
    endloop
  endfacet
  facet normal 0.000000e+00 0.000000e+00 -1.000000e+00
    outer loop
      vertex   -1.191139e+01 -1.282064e+01 0.000000e+00
      vertex   1.436141e+01 -1.000000e+01 0.000000e+00
      vertex   1.191139e+01 -1.282064e+01 0.000000e+00
    endloop
  endfacet
  facet normal 0.000000e+00 0.000000e+00 -1.000000e+00
    outer loop
      vertex   -1.191139e+01 -1.282064e+01 0.000000e+00
      vertex   1.191139e+01 -1.282064e+01 0.000000e+00
      vertex   -8.918460e+00 -1.505693e+01 0.000000e+00
    endloop
  endfacet
  facet normal 0.000000e+00 0.000000e+00 -1.000000e+00
    outer loop
      vertex   -8.918460e+00 -1.505693e+01 0.000000e+00
      vertex   1.191139e+01 -1.282064e+01 0.000000e+00
      vertex   8.918460e+00 -1.505693e+01 0.000000e+00
    endloop
  endfacet
  facet normal 0.000000e+00 0.000000e+00 -1.000000e+00
    outer loop
      vertex   -8.918460e+00 -1.505693e+01 0.000000e+00
      vertex   8.918460e+00 -1.505693e+01 0.000000e+00
      vertex   -5.519037e+00 -1.660693e+01 0.000000e+00
    endloop
  endfacet
  facet normal 0.000000e+00 0.000000e+00 -1.000000e+00
    outer loop
      vertex   -5.519037e+00 -1.660693e+01 0.000000e+00
      vertex   8.918460e+00 -1.505693e+01 0.000000e+00
      vertex   5.519037e+00 -1.660693e+01 0.000000e+00
    endloop
  endfacet
  facet normal 0.000000e+00 0.000000e+00 -1.000000e+00
    outer loop
      vertex   -5.519037e+00 -1.660693e+01 0.000000e+00
      vertex   5.519037e+00 -1.660693e+01 0.000000e+00
      vertex   -1.868060e+00 -1.740001e+01 0.000000e+00
    endloop
  endfacet
  facet normal 0.000000e+00 0.000000e+00 -1.000000e+00
    outer loop
      vertex   -1.868060e+00 -1.740001e+01 0.000000e+00
      vertex   5.519037e+00 -1.660693e+01 0.000000e+00
      vertex   1.868060e+00 -1.740001e+01 0.000000e+00
    endloop
  endfacet
endsolid
